<svg width="12" height="8" viewBox="0 0 12 8" fill="none" xmlns="http://www.w3.org/2000/svg">
<path d="M11.3706 3.33377H0.629444C0.27941 3.33377 -0.00434875 3.6175 -0.00434875 3.9675V4.03421C-0.00434875 4.3842 0.27941 4.66793 0.629444 4.66793H11.3706C11.7206 4.66793 12.0043 4.3842 12.0043 4.03421V3.9675C12.0043 3.6175 11.7206 3.33377 11.3706 3.33377Z" fill="black"/>
<path d="M11.3706 6.66917H0.629444C0.27941 6.66917 -0.00434875 6.9529 -0.00434875 7.30289V7.3696C-0.00434875 7.7196 0.27941 8.00333 0.629444 8.00333H11.3706C11.7206 8.00333 12.0043 7.7196 12.0043 7.3696V7.30289C12.0043 6.9529 11.7206 6.66917 11.3706 6.66917Z" fill="black"/>
<path d="M11.3706 -0.00161934H0.629444C0.27941 -0.00161934 -0.00434875 0.282109 -0.00434875 0.632105V0.698813C-0.00434875 1.04881 0.27941 1.33254 0.629444 1.33254H11.3706C11.7206 1.33254 12.0043 1.04881 12.0043 0.698813V0.632105C12.0043 0.282109 11.7206 -0.00161934 11.3706 -0.00161934Z" fill="black"/>
</svg>
