<svg width="88" height="88" viewBox="0 0 88 88" fill="none" xmlns="http://www.w3.org/2000/svg">
<path d="M86.829 81.172L64.128 58.471C69.2357 52.0964 72.013 44.1685 72 36C72 16.118 55.883 0 36 0C16.118 0 0 16.118 0 36C0 55.882 16.118 72 36 72C44.5 72 52.312 69.054 58.471 64.127L81.172 86.828C81.543 87.2 81.9838 87.495 82.4691 87.6962C82.9544 87.8973 83.4747 88.0005 84 88C84.7911 88 85.5644 87.7655 86.2222 87.326C86.88 86.8866 87.3927 86.2619 87.6955 85.5311C87.9983 84.8002 88.0776 83.996 87.9234 83.2201C87.7691 82.4442 87.3883 81.7315 86.829 81.172ZM36 64C20.536 64 8 51.464 8 36C8 20.536 20.536 8 36 8C51.465 8 64 20.536 64 36C64 51.464 51.465 64 36 64Z" fill="#6B6B6B" fill-opacity="0.93"/>
</svg>
