<svg width="16" height="16" viewBox="0 0 16 16" fill="none" xmlns="http://www.w3.org/2000/svg">
<g clip-path="url(#clip0_399_6)">
<path d="M0.757214 5.29226H3.99385V15.2428H0.757214V5.29226ZM12.81 5.40895C12.7756 5.39809 12.7431 5.38633 12.7069 5.37638C12.6635 5.36655 12.6197 5.3581 12.5757 5.35105C12.3846 5.31198 12.19 5.29228 11.995 5.29226C10.108 5.29226 8.91122 6.66453 8.51682 7.19462V5.29226H5.28018V15.2428H8.51682V9.81522C8.51682 9.81522 10.9628 6.40852 11.995 8.91063V15.2428H15.2307V8.52799C15.2294 7.81348 14.991 7.11962 14.5529 6.55517C14.1148 5.99071 13.5018 5.58757 12.81 5.40895Z" fill="#1976D2"/>
<path d="M2.34025 3.93537C3.21454 3.93537 3.92329 3.22662 3.92329 2.35233C3.92329 1.47804 3.21454 0.769288 2.34025 0.769288C1.46596 0.769288 0.757214 1.47804 0.757214 2.35233C0.757214 3.22662 1.46596 3.93537 2.34025 3.93537Z" fill="#1976D2"/>
</g>
<defs>
<clipPath id="clip0_399_6">
<rect width="14.4735" height="14.4735" fill="white" transform="translate(0.757214 0.769288)"/>
</clipPath>
</defs>
</svg>
