<svg width="48" height="48" viewBox="0 0 48 48" fill="none" xmlns="http://www.w3.org/2000/svg">
<path d="M23.9395 20.2645C23.9395 20.7125 24.2995 21.0645 24.7395 21.0645C25.6515 21.0645 26.3875 21.8085 26.3875 22.7125C26.3875 23.1525 26.7475 23.5125 27.1875 23.5125C27.6275 23.5125 27.9875 23.1525 27.9875 22.7125C27.9875 20.9205 26.5315 19.4645 24.7395 19.4645C24.2995 19.4645 23.9395 19.8245 23.9395 20.2645ZM36.9635 23.5125C37.4115 23.5125 37.7635 23.1525 37.7635 22.7125C37.7635 15.5285 31.9235 9.68848 24.7395 9.68848C24.2995 9.68848 23.9395 10.0485 23.9395 10.4885C23.9395 10.9285 24.2995 11.2885 24.7395 11.2885C31.0435 11.2885 36.1635 16.4165 36.1635 22.7125C36.1635 23.1525 36.5235 23.5125 36.9635 23.5125Z" fill="white"/>
<path d="M31.2748 22.7118C31.2748 23.1518 31.6348 23.5118 32.0748 23.5118C32.5148 23.5118 32.8748 23.1518 32.8748 22.7118C32.8748 18.2238 29.2268 14.5758 24.7388 14.5758C24.2988 14.5758 23.9388 14.9358 23.9388 15.3758C23.9388 15.8238 24.2988 16.1758 24.7388 16.1758C28.3468 16.1758 31.2748 19.1118 31.2748 22.7118ZM24.7388 4.7998C24.2988 4.7998 23.9388 5.1598 23.9388 5.5998C23.9388 6.0398 24.2988 6.3998 24.7388 6.3998C33.7388 6.3998 41.0588 13.7198 41.0588 22.7118C41.0588 23.1518 41.4108 23.5118 41.8588 23.5118C42.2988 23.5118 42.6588 23.1518 42.6588 22.7118C42.6588 12.8318 34.6188 4.7998 24.7388 4.7998ZM32.5548 31.1438L31.5068 31.7118C29.7388 32.6798 27.4988 32.3518 26.0668 30.9198L17.6188 22.4718C16.1868 21.0398 15.8588 18.7998 16.8268 17.0238L17.3948 15.9838C18.0348 14.7998 18.2668 13.4718 18.0748 12.1438C17.8935 10.8185 17.2805 9.58983 16.3308 8.64781C15.1628 7.47981 13.6108 6.8398 11.9548 6.8398C10.2988 6.8398 8.73882 7.47981 7.57082 8.64781L7.16282 9.0638C5.00282 11.2238 4.75482 14.9438 6.45882 19.5518C8.06682 23.9518 11.3068 28.7198 15.5628 32.9758C22.0508 39.4638 29.2748 43.1998 34.4588 43.1998C36.5068 43.1998 38.2428 42.6158 39.4748 41.3838L39.8908 40.9678C40.4669 40.3924 40.9238 39.7089 41.2354 38.9567C41.5471 38.2044 41.7072 37.3981 41.7068 36.5838C41.6956 34.9441 41.0439 33.3737 39.8908 32.2078C37.9628 30.2798 34.9468 29.8478 32.5548 31.1438Z" fill="white"/>
</svg>
