<svg width="46" height="45" viewBox="0 0 46 45" fill="none" xmlns="http://www.w3.org/2000/svg">
<path d="M23.0006 19.2857C26.9682 19.2857 30.6763 18.9258 34.125 18.2059C37.5737 17.486 40.2941 16.423 42.2863 15.0167V19.2857C42.2863 20.4408 41.4241 21.5123 39.6998 22.5C37.9754 23.4877 35.6317 24.2704 32.6685 24.8479C29.7054 25.4255 26.4827 25.7143 23.0006 25.7143C19.5184 25.7143 16.2958 25.4255 13.3326 24.8479C10.3694 24.2704 8.02567 23.4877 6.30134 22.5C4.57701 21.5123 3.71484 20.4408 3.71484 19.2857V15.0167C5.70703 16.423 8.42746 17.486 11.8761 18.2059C15.3248 18.9258 19.0329 19.2857 23.0006 19.2857ZM23.0006 38.5714C26.9682 38.5714 30.6763 38.2115 34.125 37.4916C37.5737 36.7718 40.2941 35.7087 42.2863 34.3025V38.5714C42.2863 39.7266 41.4241 40.798 39.6998 41.7857C37.9754 42.7734 35.6317 43.5561 32.6685 44.1336C29.7054 44.7112 26.4827 45 23.0006 45C19.5184 45 16.2958 44.7112 13.3326 44.1336C10.3694 43.5561 8.02567 42.7734 6.30134 41.7857C4.57701 40.798 3.71484 39.7266 3.71484 38.5714V34.3025C5.70703 35.7087 8.42746 36.7718 11.8761 37.4916C15.3248 38.2115 19.0329 38.5714 23.0006 38.5714ZM23.0006 28.9286C26.9682 28.9286 30.6763 28.5686 34.125 27.8488C37.5737 27.1289 40.2941 26.0658 42.2863 24.6596V28.9286C42.2863 30.0837 41.4241 31.1551 39.6998 32.1429C37.9754 33.1306 35.6317 33.9132 32.6685 34.4908C29.7054 35.0684 26.4827 35.3571 23.0006 35.3571C19.5184 35.3571 16.2958 35.0684 13.3326 34.4908C10.3694 33.9132 8.02567 33.1306 6.30134 32.1429C4.57701 31.1551 3.71484 30.0837 3.71484 28.9286V24.6596C5.70703 26.0658 8.42746 27.1289 11.8761 27.8488C15.3248 28.5686 19.0329 28.9286 23.0006 28.9286ZM23.0006 0C26.4827 0 29.7054 0.288783 32.6685 0.86635C35.6317 1.44392 37.9754 2.22656 39.6998 3.21429C41.4241 4.20201 42.2863 5.27344 42.2863 6.42857V9.64286C42.2863 10.798 41.4241 11.8694 39.6998 12.8571C37.9754 13.8449 35.6317 14.6275 32.6685 15.2051C29.7054 15.7826 26.4827 16.0714 23.0006 16.0714C19.5184 16.0714 16.2958 15.7826 13.3326 15.2051C10.3694 14.6275 8.02567 13.8449 6.30134 12.8571C4.57701 11.8694 3.71484 10.798 3.71484 9.64286V6.42857C3.71484 5.27344 4.57701 4.20201 6.30134 3.21429C8.02567 2.22656 10.3694 1.44392 13.3326 0.86635C16.2958 0.288783 19.5184 0 23.0006 0Z" fill="#2E0099"/>
</svg>
