<svg width="45" height="45" viewBox="0 0 45 45" fill="none" xmlns="http://www.w3.org/2000/svg">
<path d="M22.5006 19.2857C26.4682 19.2857 30.1763 18.9258 33.625 18.2059C37.0737 17.486 39.7941 16.423 41.7863 15.0167V19.2857C41.7863 20.4408 40.9241 21.5123 39.1998 22.5C37.4754 23.4877 35.1317 24.2704 32.1685 24.8479C29.2054 25.4255 25.9827 25.7143 22.5006 25.7143C19.0184 25.7143 15.7958 25.4255 12.8326 24.8479C9.86942 24.2704 7.52567 23.4877 5.80134 22.5C4.07701 21.5123 3.21484 20.4408 3.21484 19.2857V15.0167C5.20703 16.423 7.92746 17.486 11.3761 18.2059C14.8248 18.9258 18.5329 19.2857 22.5006 19.2857ZM22.5006 38.5714C26.4682 38.5714 30.1763 38.2115 33.625 37.4916C37.0737 36.7718 39.7941 35.7087 41.7863 34.3025V38.5714C41.7863 39.7266 40.9241 40.798 39.1998 41.7857C37.4754 42.7734 35.1317 43.5561 32.1685 44.1336C29.2054 44.7112 25.9827 45 22.5006 45C19.0184 45 15.7958 44.7112 12.8326 44.1336C9.86942 43.5561 7.52567 42.7734 5.80134 41.7857C4.07701 40.798 3.21484 39.7266 3.21484 38.5714V34.3025C5.20703 35.7087 7.92746 36.7718 11.3761 37.4916C14.8248 38.2115 18.5329 38.5714 22.5006 38.5714ZM22.5006 28.9286C26.4682 28.9286 30.1763 28.5686 33.625 27.8488C37.0737 27.1289 39.7941 26.0658 41.7863 24.6596V28.9286C41.7863 30.0837 40.9241 31.1551 39.1998 32.1429C37.4754 33.1306 35.1317 33.9132 32.1685 34.4908C29.2054 35.0684 25.9827 35.3571 22.5006 35.3571C19.0184 35.3571 15.7958 35.0684 12.8326 34.4908C9.86942 33.9132 7.52567 33.1306 5.80134 32.1429C4.07701 31.1551 3.21484 30.0837 3.21484 28.9286V24.6596C5.20703 26.0658 7.92746 27.1289 11.3761 27.8488C14.8248 28.5686 18.5329 28.9286 22.5006 28.9286ZM22.5006 0C25.9827 0 29.2054 0.288783 32.1685 0.86635C35.1317 1.44392 37.4754 2.22656 39.1998 3.21429C40.9241 4.20201 41.7863 5.27344 41.7863 6.42857V9.64286C41.7863 10.798 40.9241 11.8694 39.1998 12.8571C37.4754 13.8449 35.1317 14.6275 32.1685 15.2051C29.2054 15.7826 25.9827 16.0714 22.5006 16.0714C19.0184 16.0714 15.7958 15.7826 12.8326 15.2051C9.86942 14.6275 7.52567 13.8449 5.80134 12.8571C4.07701 11.8694 3.21484 10.798 3.21484 9.64286V6.42857C3.21484 5.27344 4.07701 4.20201 5.80134 3.21429C7.52567 2.22656 9.86942 1.44392 12.8326 0.86635C15.7958 0.288783 19.0184 0 22.5006 0Z" fill="white"/>
</svg>
