<svg width="328" height="77" viewBox="0 0 328 77" fill="none" xmlns="http://www.w3.org/2000/svg">
<circle cx="2.5" cy="74.5" r="2.5" fill="#2E0099"/>
<circle cx="2.5" cy="56.5" r="2.5" fill="#2E0099"/>
<circle cx="2.5" cy="38.5" r="2.5" fill="#2E0099"/>
<circle cx="2.5" cy="20.5" r="2.5" fill="#2E0099"/>
<circle cx="2.5" cy="2.5" r="2.5" fill="#2E0099"/>
<circle cx="21.5" cy="74.5" r="2.5" fill="#2E0099"/>
<circle cx="21.5" cy="56.5" r="2.5" fill="#2E0099"/>
<circle cx="21.5" cy="38.5" r="2.5" fill="#2E0099"/>
<circle cx="21.5" cy="20.5" r="2.5" fill="#2E0099"/>
<circle cx="21.5" cy="2.5" r="2.5" fill="#2E0099"/>
<circle cx="40.5" cy="74.5" r="2.5" fill="#2E0099"/>
<circle cx="40.5" cy="56.5" r="2.5" fill="#2E0099"/>
<circle cx="40.5" cy="38.5" r="2.5" fill="#2E0099"/>
<circle cx="40.5" cy="20.5" r="2.5" fill="#2E0099"/>
<circle cx="40.5" cy="2.5" r="2.5" fill="#2E0099"/>
<circle cx="59.5" cy="74.5" r="2.5" fill="#2E0099"/>
<circle cx="59.5" cy="56.5" r="2.5" fill="#2E0099"/>
<circle cx="59.5" cy="38.5" r="2.5" fill="#2E0099"/>
<circle cx="59.5" cy="20.5" r="2.5" fill="#2E0099"/>
<circle cx="59.5" cy="2.5" r="2.5" fill="#2E0099"/>
<circle cx="78.5" cy="74.5" r="2.5" fill="#2E0099"/>
<circle cx="78.5" cy="56.5" r="2.5" fill="#2E0099"/>
<circle cx="78.5" cy="38.5" r="2.5" fill="#2E0099"/>
<circle cx="78.5" cy="20.5" r="2.5" fill="#2E0099"/>
<circle cx="78.5" cy="2.5" r="2.5" fill="#2E0099"/>
<circle cx="97.5" cy="74.5" r="2.5" fill="#2E0099"/>
<circle cx="97.5" cy="56.5" r="2.5" fill="#2E0099"/>
<circle cx="97.5" cy="38.5" r="2.5" fill="#2E0099"/>
<circle cx="97.5" cy="20.5" r="2.5" fill="#2E0099"/>
<circle cx="97.5" cy="2.5" r="2.5" fill="#2E0099"/>
<circle cx="116.5" cy="74.5" r="2.5" fill="#2E0099"/>
<circle cx="116.5" cy="56.5" r="2.5" fill="#2E0099"/>
<circle cx="116.5" cy="38.5" r="2.5" fill="#2E0099"/>
<circle cx="116.5" cy="20.5" r="2.5" fill="#2E0099"/>
<circle cx="116.5" cy="2.5" r="2.5" fill="#2E0099"/>
<circle cx="135.5" cy="74.5" r="2.5" fill="#2E0099"/>
<circle cx="135.5" cy="56.5" r="2.5" fill="#2E0099"/>
<circle cx="135.5" cy="38.5" r="2.5" fill="#2E0099"/>
<circle cx="135.5" cy="20.5" r="2.5" fill="#2E0099"/>
<circle cx="135.5" cy="2.5" r="2.5" fill="#2E0099"/>
<circle cx="154.5" cy="74.5" r="2.5" fill="#2E0099"/>
<circle cx="154.5" cy="56.5" r="2.5" fill="#2E0099"/>
<circle cx="154.5" cy="38.5" r="2.5" fill="#2E0099"/>
<circle cx="154.5" cy="20.5" r="2.5" fill="#2E0099"/>
<circle cx="154.5" cy="2.5" r="2.5" fill="#2E0099"/>
<circle cx="173.5" cy="74.5" r="2.5" fill="#2E0099"/>
<circle cx="173.5" cy="56.5" r="2.5" fill="#2E0099"/>
<circle cx="173.5" cy="38.5" r="2.5" fill="#2E0099"/>
<circle cx="173.5" cy="20.5" r="2.5" fill="#2E0099"/>
<circle cx="173.5" cy="2.5" r="2.5" fill="#2E0099"/>
<circle cx="192.5" cy="74.5" r="2.5" fill="#2E0099"/>
<circle cx="192.5" cy="56.5" r="2.5" fill="#2E0099"/>
<circle cx="192.5" cy="38.5" r="2.5" fill="#2E0099"/>
<circle cx="192.5" cy="20.5" r="2.5" fill="#2E0099"/>
<circle cx="192.5" cy="2.5" r="2.5" fill="#2E0099"/>
<circle cx="211.5" cy="74.5" r="2.5" fill="#2E0099"/>
<circle cx="211.5" cy="56.5" r="2.5" fill="#2E0099"/>
<circle cx="211.5" cy="38.5" r="2.5" fill="#2E0099"/>
<circle cx="211.5" cy="20.5" r="2.5" fill="#2E0099"/>
<circle cx="211.5" cy="2.5" r="2.5" fill="#2E0099"/>
<circle cx="230.5" cy="74.5" r="2.5" fill="#2E0099"/>
<circle cx="230.5" cy="56.5" r="2.5" fill="#2E0099"/>
<circle cx="230.5" cy="38.5" r="2.5" fill="#2E0099"/>
<circle cx="230.5" cy="20.5" r="2.5" fill="#2E0099"/>
<circle cx="230.5" cy="2.5" r="2.5" fill="#2E0099"/>
<circle cx="249.5" cy="74.5" r="2.5" fill="#2E0099"/>
<circle cx="249.5" cy="56.5" r="2.5" fill="#2E0099"/>
<circle cx="249.5" cy="38.5" r="2.5" fill="#2E0099"/>
<circle cx="249.5" cy="20.5" r="2.5" fill="#2E0099"/>
<circle cx="249.5" cy="2.5" r="2.5" fill="#2E0099"/>
<circle cx="268.5" cy="74.5" r="2.5" fill="#2E0099"/>
<circle cx="268.5" cy="56.5" r="2.5" fill="#2E0099"/>
<circle cx="268.5" cy="38.5" r="2.5" fill="#2E0099"/>
<circle cx="268.5" cy="20.5" r="2.5" fill="#2E0099"/>
<circle cx="268.5" cy="2.5" r="2.5" fill="#2E0099"/>
<circle cx="287.5" cy="74.5" r="2.5" fill="#2E0099"/>
<circle cx="287.5" cy="56.5" r="2.5" fill="#2E0099"/>
<circle cx="287.5" cy="38.5" r="2.5" fill="#2E0099"/>
<circle cx="287.5" cy="20.5" r="2.5" fill="#2E0099"/>
<circle cx="287.5" cy="2.5" r="2.5" fill="#2E0099"/>
<circle cx="306.5" cy="74.5" r="2.5" fill="#2E0099"/>
<circle cx="306.5" cy="56.5" r="2.5" fill="#2E0099"/>
<circle cx="306.5" cy="38.5" r="2.5" fill="#2E0099"/>
<circle cx="306.5" cy="20.5" r="2.5" fill="#2E0099"/>
<circle cx="306.5" cy="2.5" r="2.5" fill="#2E0099"/>
<circle cx="325.5" cy="74.5" r="2.5" fill="#2E0099"/>
<circle cx="325.5" cy="56.5" r="2.5" fill="#2E0099"/>
<circle cx="325.5" cy="38.5" r="2.5" fill="#2E0099"/>
<circle cx="325.5" cy="20.5" r="2.5" fill="#2E0099"/>
<circle cx="325.5" cy="2.5" r="2.5" fill="#2E0099"/>
</svg>
