<svg width="512" height="512" viewBox="0 0 512 512" fill="none" xmlns="http://www.w3.org/2000/svg">
<path d="M32 112H34.272C37.7643 125.721 45.7289 137.888 56.9075 146.578C68.086 155.268 81.8412 159.985 96 159.985C110.159 159.985 123.914 155.268 135.093 146.578C146.271 137.888 154.236 125.721 157.728 112H480C484.243 112 488.313 110.314 491.314 107.314C494.314 104.313 496 100.244 496 96C496 91.7566 494.314 87.6869 491.314 84.6863C488.313 81.6858 484.243 80 480 80H157.728C154.236 66.2787 146.271 54.1121 135.093 45.4223C123.914 36.7325 110.159 32.015 96 32.015C81.8412 32.015 68.086 36.7325 56.9075 45.4223C45.7289 54.1121 37.7643 66.2787 34.272 80H32C27.7565 80 23.6869 81.6858 20.6863 84.6863C17.6857 87.6869 16 91.7566 16 96C16 100.244 17.6857 104.313 20.6863 107.314C23.6869 110.314 27.7565 112 32 112ZM96 64C102.329 64 108.516 65.8768 113.778 69.393C119.041 72.9092 123.142 77.9069 125.564 83.7542C127.986 89.6014 128.62 96.0355 127.385 102.243C126.15 108.45 123.103 114.152 118.627 118.627C114.152 123.103 108.45 126.15 102.243 127.385C96.0355 128.62 89.6014 127.986 83.7541 125.564C77.9069 123.142 72.9092 119.041 69.393 113.778C65.8768 108.516 64 102.329 64 96C64 87.5131 67.3714 79.3738 73.3726 73.3726C79.3737 67.3715 87.5131 64 96 64ZM480 240H477.728C474.236 226.279 466.271 214.112 455.093 205.422C443.914 196.733 430.159 192.015 416 192.015C401.841 192.015 388.086 196.733 376.907 205.422C365.729 214.112 357.764 226.279 354.272 240H32C27.7565 240 23.6869 241.686 20.6863 244.686C17.6857 247.687 16 251.757 16 256C16 260.244 17.6857 264.313 20.6863 267.314C23.6869 270.314 27.7565 272 32 272H354.272C357.764 285.721 365.729 297.888 376.907 306.578C388.086 315.268 401.841 319.985 416 319.985C430.159 319.985 443.914 315.268 455.093 306.578C466.271 297.888 474.236 285.721 477.728 272H480C484.243 272 488.313 270.314 491.314 267.314C494.314 264.313 496 260.244 496 256C496 251.757 494.314 247.687 491.314 244.686C488.313 241.686 484.243 240 480 240ZM416 288C409.671 288 403.484 286.123 398.222 282.607C392.959 279.091 388.858 274.093 386.436 268.246C384.014 262.399 383.38 255.965 384.615 249.757C385.85 243.55 388.897 237.848 393.373 233.373C397.848 228.897 403.55 225.85 409.757 224.615C415.965 223.38 422.399 224.014 428.246 226.436C434.093 228.858 439.091 232.959 442.607 238.222C446.123 243.484 448 249.671 448 256C448 264.487 444.629 272.626 438.627 278.627C432.626 284.629 424.487 288 416 288ZM480 400H317.728C314.236 386.279 306.271 374.112 295.093 365.422C283.914 356.733 270.159 352.015 256 352.015C241.841 352.015 228.086 356.733 216.907 365.422C205.729 374.112 197.764 386.279 194.272 400H32C27.7565 400 23.6869 401.686 20.6863 404.686C17.6857 407.687 16 411.757 16 416C16 420.244 17.6857 424.313 20.6863 427.314C23.6869 430.314 27.7565 432 32 432H194.272C197.764 445.721 205.729 457.888 216.907 466.578C228.086 475.268 241.841 479.985 256 479.985C270.159 479.985 283.914 475.268 295.093 466.578C306.271 457.888 314.236 445.721 317.728 432H480C484.243 432 488.313 430.314 491.314 427.314C494.314 424.313 496 420.244 496 416C496 411.757 494.314 407.687 491.314 404.686C488.313 401.686 484.243 400 480 400ZM256 448C249.671 448 243.484 446.123 238.222 442.607C232.959 439.091 228.858 434.093 226.436 428.246C224.014 422.399 223.38 415.965 224.615 409.757C225.85 403.55 228.897 397.848 233.373 393.373C237.848 388.897 243.55 385.85 249.757 384.615C255.965 383.38 262.399 384.014 268.246 386.436C274.093 388.858 279.091 392.959 282.607 398.222C286.123 403.484 288 409.671 288 416C288 424.487 284.629 432.626 278.627 438.627C272.626 444.629 264.487 448 256 448Z" fill="black"/>
</svg>
