<svg width="1792" height="1536" viewBox="0 0 1792 1536" fill="none" xmlns="http://www.w3.org/2000/svg">
<path d="M1664 468C1664 414 1656.83 366.333 1642.5 325C1628.17 283.667 1609.83 250.833 1587.5 226.5C1565.17 202.167 1538 182.333 1506 167C1474 151.667 1442.67 141.333 1412 136C1381.33 130.667 1348.67 128 1314 128C1279.33 128 1242 136.5 1202 153.5C1162 170.5 1125.17 191.833 1091.5 217.5C1057.83 243.167 1029 267.167 1005 289.5C981 311.833 961 332.333 945 351C933 365.667 916.667 373 896 373C875.333 373 859 365.667 847 351C831 332.333 811 311.833 787 289.5C763 267.167 734.167 243.167 700.5 217.5C666.833 191.833 630 170.5 590 153.5C550 136.5 512.667 128 478 128C443.333 128 410.667 130.667 380 136C349.333 141.333 318 151.667 286 167C254 182.333 226.833 202.167 204.5 226.5C182.167 250.833 163.833 283.667 149.5 325C135.167 366.333 128 414 128 468C128 580 190.333 698.333 315 823L896 1383L1476 824C1601.33 698.667 1664 580 1664 468ZM1792 468C1792 615.333 1715.67 765.333 1563 918L940 1518C928 1530 913.333 1536 896 1536C878.667 1536 864 1530 852 1518L228 916C221.333 910.667 212.167 902 200.5 890C188.833 878 170.333 856.167 145 824.5C119.667 792.833 97 760.333 77 727C57 693.667 39.1667 653.333 23.5 606C7.83333 558.667 0 512.667 0 468C0 321.333 42.3333 206.667 127 124C211.667 41.3333 328.667 0 478 0C519.333 0 561.5 7.16667 604.5 21.5C647.5 35.8333 687.5 55.1667 724.5 79.5C761.5 103.833 793.333 126.667 820 148C846.667 169.333 872 192 896 216C920 192 945.333 169.333 972 148C998.667 126.667 1030.5 103.833 1067.5 79.5C1104.5 55.1667 1144.5 35.8333 1187.5 21.5C1230.5 7.16667 1272.67 0 1314 0C1463.33 0 1580.33 41.3333 1665 124C1749.67 206.667 1792 321.333 1792 468Z" fill="black"/>
</svg>
