<svg width="46" height="45" viewBox="0 0 46 45" fill="none" xmlns="http://www.w3.org/2000/svg">
<path d="M15.3016 33.75C14.4578 35.0227 13.0586 35.8102 11.5398 35.8102C10.0211 35.8102 8.62188 35.0227 7.78516 33.75C4.24844 35.6414 1.86484 40.0008 1.63281 45H21.4539C21.2219 40.0008 18.8383 35.6414 15.3016 33.75Z" fill="#2E0099"/>
<path d="M11.5465 32.3298C13.6163 32.3298 15.2941 30.6519 15.2941 28.5821C15.2941 26.5124 13.6163 24.8345 11.5465 24.8345C9.47671 24.8345 7.79883 26.5124 7.79883 28.5821C7.79883 30.6519 9.47671 32.3298 11.5465 32.3298Z" fill="#2E0099"/>
<path d="M8.10703 15.075H11.4117C11.8195 15.075 12.157 15.3773 12.2062 15.7922L12.4664 18L16.5375 15.2086C16.6641 15.1172 16.8258 15.075 16.9875 15.075H30.1992C30.7828 15.075 31.268 14.5898 31.268 13.9992V1.07578C31.268 0.478125 30.7828 0 30.1992 0H8.10703C7.51641 0 7.03125 0.485156 7.03125 1.07578V13.9992C7.03125 14.5898 7.51641 15.075 8.10703 15.075ZM11.8125 3.15H26.4867C26.9367 3.15 27.2883 3.50859 27.2883 3.95156C27.2883 4.39453 26.9367 4.75313 26.4867 4.75313H11.8125C11.5999 4.75313 11.396 4.66868 11.2457 4.51835C11.0954 4.36803 11.0109 4.16415 11.0109 3.95156C11.0109 3.73898 11.0954 3.53509 11.2457 3.38477C11.396 3.23445 11.5999 3.15 11.8125 3.15ZM11.8125 7.14375H26.4867C26.9367 7.14375 27.2883 7.50234 27.2883 7.94531C27.2883 8.38828 26.9367 8.74688 26.4867 8.74688H11.8125C11.7072 8.74688 11.603 8.72614 11.5058 8.68586C11.4085 8.64558 11.3201 8.58654 11.2457 8.5121C11.1713 8.43767 11.1122 8.34931 11.072 8.25206C11.0317 8.15481 11.0109 8.05058 11.0109 7.94531C11.0109 7.84005 11.0317 7.73582 11.072 7.63857C11.1122 7.54132 11.1713 7.45295 11.2457 7.37852C11.3201 7.30409 11.4085 7.24505 11.5058 7.20477C11.603 7.16448 11.7072 7.14375 11.8125 7.14375ZM11.8125 11.1375H26.4867C26.9367 11.1375 27.2883 11.4961 27.2883 11.9391C27.2883 12.382 26.9367 12.7406 26.4867 12.7406H11.8125C11.5999 12.7406 11.396 12.6562 11.2457 12.5059C11.0954 12.3555 11.0109 12.1517 11.0109 11.9391C11.0109 11.7265 11.0954 11.5226 11.2457 11.3723C11.396 11.222 11.5999 11.1375 11.8125 11.1375Z" fill="#2E0099"/>
<path d="M43.3004 12.748H32.8801V13.9996C32.8801 15.4762 31.6848 16.6855 30.2012 16.6855H20.3223V26.1285C20.3223 26.7262 20.8074 27.2043 21.398 27.2043H34.6801C34.8629 27.2043 35.0316 27.2605 35.1793 27.373L39.1309 30.4246L39.4613 27.9004C39.5176 27.4996 39.8551 27.2043 40.2559 27.2043H43.2934C43.877 27.2043 44.3621 26.7191 44.3621 26.1285V13.8238C44.3691 13.2262 43.884 12.748 43.3004 12.748ZM40.4809 24.9332H24.2176C24.005 24.9332 23.8011 24.8488 23.6508 24.6984C23.5005 24.5481 23.416 24.3442 23.416 24.1316C23.416 23.9191 23.5005 23.7152 23.6508 23.5649C23.8011 23.4145 24.005 23.3301 24.2176 23.3301H40.4809C40.6934 23.3301 40.8973 23.4145 41.0477 23.5649C41.198 23.7152 41.2824 23.9191 41.2824 24.1316C41.2824 24.3442 41.198 24.5481 41.0477 24.6984C40.8973 24.8488 40.6934 24.9332 40.4809 24.9332ZM40.4809 20.9395H24.2176C23.7746 20.9395 23.416 20.5879 23.416 20.1379C23.416 19.6949 23.7746 19.3363 24.2176 19.3363H40.4809C40.9238 19.3363 41.2824 19.6949 41.2824 20.1379C41.2824 20.5879 40.9238 20.9395 40.4809 20.9395ZM40.4809 16.9527H35.3199C34.877 16.9527 34.5184 16.5941 34.5184 16.1512C34.5184 15.7012 34.877 15.3496 35.3199 15.3496H40.4809C40.9238 15.3496 41.2824 15.7012 41.2824 16.1512C41.2824 16.5941 40.9238 16.9527 40.4809 16.9527Z" fill="#2E0099"/>
</svg>
