<svg width="45" height="45" viewBox="0 0 45 45" fill="none" xmlns="http://www.w3.org/2000/svg">
<g clip-path="url(#clip0_819_155)">
<path d="M24.1895 27.6328C23.2754 26.7891 21.7988 26.7891 20.8848 27.6328L2.11133 44.7891C2.11133 44.7891 2.11133 44.7891 2.18164 44.7891C2.25195 44.8594 2.39258 44.8594 2.46289 44.9297C2.5332 44.9297 2.5332 44.9297 2.60352 45C2.74414 45 2.95508 45 3.0957 45H41.9082C42.0488 45 42.2598 45 42.4004 44.9297C42.4707 44.9297 42.541 44.8594 42.6113 44.8594C42.6816 44.8594 42.8223 44.7891 42.8926 44.7891C42.8926 44.7891 42.8926 44.7891 42.9629 44.7891L24.1895 27.6328ZM20.5332 5.90625V10.0547L22.0098 8.78906C22.1504 8.64844 22.291 8.57812 22.502 8.57812C22.7129 8.57812 22.8535 8.64844 22.9941 8.78906L24.4707 10.0547V5.90625H20.5332ZM30.166 5.90625H25.9473V11.7422C25.9473 12.0234 25.8066 12.3047 25.5254 12.4453C25.4551 12.5156 25.3145 12.5156 25.2441 12.5156C25.0332 12.5156 24.8926 12.4453 24.752 12.3047L22.502 10.3359L20.252 12.3047C20.041 12.5156 19.6895 12.5156 19.4785 12.4453C19.1973 12.3047 19.0566 12.0234 19.0566 11.7422V5.90625H14.8379C13.5723 5.90625 12.5879 6.89063 12.5879 8.15625V20.0391C12.5879 21.3047 13.5723 22.2891 14.8379 22.2891H30.166C31.4316 22.2891 32.416 21.3047 32.416 20.0391V8.15625C32.416 6.89063 31.4316 5.90625 30.166 5.90625ZM29.9551 20.6016H26.1582C25.7363 20.6016 25.3848 20.25 25.3848 19.8281C25.3848 19.4063 25.7363 19.0547 26.1582 19.0547H29.9551C30.377 19.0547 30.7285 19.4063 30.7285 19.8281C30.7285 20.25 30.377 20.6016 29.9551 20.6016ZM29.9551 18.1406H26.1582C25.7363 18.1406 25.3848 17.7891 25.3848 17.3672C25.3848 16.9453 25.7363 16.5938 26.1582 16.5938H29.9551C30.377 16.5938 30.7285 16.9453 30.7285 17.3672C30.7285 17.8594 30.377 18.1406 29.9551 18.1406ZM30.166 5.90625H25.9473V11.7422C25.9473 12.0234 25.8066 12.3047 25.5254 12.4453C25.4551 12.5156 25.3145 12.5156 25.2441 12.5156C25.0332 12.5156 24.8926 12.4453 24.752 12.3047L22.502 10.3359L20.252 12.3047C20.041 12.5156 19.6895 12.5156 19.4785 12.4453C19.1973 12.3047 19.0566 12.0234 19.0566 11.7422V5.90625H14.8379C13.5723 5.90625 12.5879 6.89063 12.5879 8.15625V20.0391C12.5879 21.3047 13.5723 22.2891 14.8379 22.2891H30.166C31.4316 22.2891 32.416 21.3047 32.416 20.0391V8.15625C32.416 6.89063 31.4316 5.90625 30.166 5.90625ZM29.9551 20.6016H26.1582C25.7363 20.6016 25.3848 20.25 25.3848 19.8281C25.3848 19.4063 25.7363 19.0547 26.1582 19.0547H29.9551C30.377 19.0547 30.7285 19.4063 30.7285 19.8281C30.7285 20.25 30.377 20.6016 29.9551 20.6016ZM29.9551 18.1406H26.1582C25.7363 18.1406 25.3848 17.7891 25.3848 17.3672C25.3848 16.9453 25.7363 16.5938 26.1582 16.5938H29.9551C30.377 16.5938 30.7285 16.9453 30.7285 17.3672C30.7285 17.8594 30.377 18.1406 29.9551 18.1406ZM22.502 8.57812C22.7129 8.57812 22.8535 8.64844 22.9941 8.78906L24.4707 10.0547V5.90625H20.5332V10.0547L22.0098 8.78906C22.1504 8.64844 22.3613 8.57812 22.502 8.57812ZM31.9941 29.7422C31.7129 30.0234 31.2207 30.0234 30.9395 29.6719C30.6582 29.3906 30.6582 28.8984 31.0098 28.6172L40.3613 20.0391V2.03906C40.291 0.914063 39.377 0 38.252 0H6.75195C5.62695 0 4.71289 0.914063 4.71289 2.03906V20.1094L14.0645 28.6172C14.3457 28.8984 14.416 29.3906 14.1348 29.6719C13.8535 29.9531 13.3613 30.0234 13.0801 29.7422L0.634766 18.4219V42.5391C0.634766 42.9609 0.775391 43.3828 0.986328 43.7344L19.8301 26.5078C20.5332 25.875 21.5176 25.4531 22.502 25.4531C23.4863 25.4531 24.4707 25.8047 25.1738 26.5078L44.0176 43.7344C44.2285 43.3828 44.3691 42.9609 44.3691 42.5391V18.4219L31.9941 29.7422ZM14.8379 23.7656C12.7988 23.7656 11.1113 22.0781 11.1113 20.0391V8.15625C11.1113 6.11719 12.7988 4.42969 14.8379 4.42969H30.166C32.2051 4.42969 33.8926 6.11719 33.8926 8.15625V20.0391C33.8926 22.0781 32.2051 23.7656 30.166 23.7656H14.8379ZM30.166 5.90625H25.9473V11.7422C25.9473 12.0234 25.8066 12.3047 25.5254 12.4453C25.4551 12.5156 25.3145 12.5156 25.2441 12.5156C25.0332 12.5156 24.8926 12.4453 24.752 12.3047L22.502 10.3359L20.252 12.3047C20.041 12.5156 19.6895 12.5156 19.4785 12.4453C19.1973 12.3047 19.0566 12.0234 19.0566 11.7422V5.90625H14.8379C13.5723 5.90625 12.5879 6.89063 12.5879 8.15625V20.0391C12.5879 21.3047 13.5723 22.2891 14.8379 22.2891H30.166C31.4316 22.2891 32.416 21.3047 32.416 20.0391V8.15625C32.416 6.89063 31.4316 5.90625 30.166 5.90625ZM29.9551 20.6016H26.1582C25.7363 20.6016 25.3848 20.25 25.3848 19.8281C25.3848 19.4063 25.7363 19.0547 26.1582 19.0547H29.9551C30.377 19.0547 30.7285 19.4063 30.7285 19.8281C30.7285 20.25 30.377 20.6016 29.9551 20.6016ZM29.9551 18.1406H26.1582C25.7363 18.1406 25.3848 17.7891 25.3848 17.3672C25.3848 16.9453 25.7363 16.5938 26.1582 16.5938H29.9551C30.377 16.5938 30.7285 16.9453 30.7285 17.3672C30.7285 17.8594 30.377 18.1406 29.9551 18.1406ZM22.502 8.57812C22.7129 8.57812 22.8535 8.64844 22.9941 8.78906L24.4707 10.0547V5.90625H20.5332V10.0547L22.0098 8.78906C22.1504 8.64844 22.3613 8.57812 22.502 8.57812ZM20.5332 5.90625V10.0547L22.0098 8.78906C22.1504 8.64844 22.291 8.57812 22.502 8.57812C22.7129 8.57812 22.8535 8.64844 22.9941 8.78906L24.4707 10.0547V5.90625H20.5332ZM30.166 5.90625H25.9473V11.7422C25.9473 12.0234 25.8066 12.3047 25.5254 12.4453C25.4551 12.5156 25.3145 12.5156 25.2441 12.5156C25.0332 12.5156 24.8926 12.4453 24.752 12.3047L22.502 10.3359L20.252 12.3047C20.041 12.5156 19.6895 12.5156 19.4785 12.4453C19.1973 12.3047 19.0566 12.0234 19.0566 11.7422V5.90625H14.8379C13.5723 5.90625 12.5879 6.89063 12.5879 8.15625V20.0391C12.5879 21.3047 13.5723 22.2891 14.8379 22.2891H30.166C31.4316 22.2891 32.416 21.3047 32.416 20.0391V8.15625C32.416 6.89063 31.4316 5.90625 30.166 5.90625ZM29.9551 20.6016H26.1582C25.7363 20.6016 25.3848 20.25 25.3848 19.8281C25.3848 19.4063 25.7363 19.0547 26.1582 19.0547H29.9551C30.377 19.0547 30.7285 19.4063 30.7285 19.8281C30.7285 20.25 30.377 20.6016 29.9551 20.6016ZM29.9551 18.1406H26.1582C25.7363 18.1406 25.3848 17.7891 25.3848 17.3672C25.3848 16.9453 25.7363 16.5938 26.1582 16.5938H29.9551C30.377 16.5938 30.7285 16.9453 30.7285 17.3672C30.7285 17.8594 30.377 18.1406 29.9551 18.1406ZM30.166 5.90625H25.9473V11.7422C25.9473 12.0234 25.8066 12.3047 25.5254 12.4453C25.4551 12.5156 25.3145 12.5156 25.2441 12.5156C25.0332 12.5156 24.8926 12.4453 24.752 12.3047L22.502 10.3359L20.252 12.3047C20.041 12.5156 19.6895 12.5156 19.4785 12.4453C19.1973 12.3047 19.0566 12.0234 19.0566 11.7422V5.90625H14.8379C13.5723 5.90625 12.5879 6.89063 12.5879 8.15625V20.0391C12.5879 21.3047 13.5723 22.2891 14.8379 22.2891H30.166C31.4316 22.2891 32.416 21.3047 32.416 20.0391V8.15625C32.416 6.89063 31.4316 5.90625 30.166 5.90625ZM29.9551 20.6016H26.1582C25.7363 20.6016 25.3848 20.25 25.3848 19.8281C25.3848 19.4063 25.7363 19.0547 26.1582 19.0547H29.9551C30.377 19.0547 30.7285 19.4063 30.7285 19.8281C30.7285 20.25 30.377 20.6016 29.9551 20.6016ZM29.9551 18.1406H26.1582C25.7363 18.1406 25.3848 17.7891 25.3848 17.3672C25.3848 16.9453 25.7363 16.5938 26.1582 16.5938H29.9551C30.377 16.5938 30.7285 16.9453 30.7285 17.3672C30.7285 17.8594 30.377 18.1406 29.9551 18.1406ZM20.5332 5.90625V10.0547L22.0098 8.78906C22.1504 8.64844 22.291 8.57812 22.502 8.57812C22.7129 8.57812 22.8535 8.64844 22.9941 8.78906L24.4707 10.0547V5.90625H20.5332Z" fill="white"/>
</g>
<defs>
<clipPath id="clip0_819_155">
<rect width="45" height="45" fill="white"/>
</clipPath>
</defs>
</svg>
