<svg width="517" height="517" viewBox="0 0 517 517" fill="none" xmlns="http://www.w3.org/2000/svg">
<g filter="url(#filter0_d_605_2)">
<path d="M487.319 272.051C489.28 270.049 490.827 267.681 491.872 265.081C492.936 262.493 493.472 259.718 493.45 256.919C493.427 254.121 492.847 251.355 491.742 248.783C490.656 246.2 489.071 243.857 487.079 241.887L315.056 72.5871C311.002 68.7333 305.596 66.6261 300.003 66.7193C294.41 66.8125 289.077 69.0988 285.154 73.0856C281.23 77.0724 279.029 82.4408 279.025 88.0345C279.021 93.6282 281.214 98.9998 285.132 102.992L420.45 236.168L45.2937 239.161C39.6359 239.206 34.2278 241.497 30.2591 245.529C26.2903 249.562 24.0861 255.006 24.1312 260.663C24.1764 266.321 26.4672 271.729 30.4997 275.698C34.5323 279.667 39.9763 281.871 45.6341 281.826L420.79 278.833L287.615 414.15C283.761 418.205 281.654 423.61 281.747 429.203C281.84 434.796 284.126 440.129 288.113 444.053C292.1 447.976 297.468 450.177 303.062 450.181C308.656 450.185 314.027 447.992 318.02 444.074L487.319 272.051Z" fill="#2E0099"/>
</g>
<defs>
<filter id="filter0_d_605_2" x="-3.24219" y="0.756836" width="524.066" height="524.068" filterUnits="userSpaceOnUse" color-interpolation-filters="sRGB">
<feFlood flood-opacity="0" result="BackgroundImageFix"/>
<feColorMatrix in="SourceAlpha" type="matrix" values="0 0 0 0 0 0 0 0 0 0 0 0 0 0 0 0 0 0 127 0" result="hardAlpha"/>
<feOffset dy="4"/>
<feGaussianBlur stdDeviation="2"/>
<feComposite in2="hardAlpha" operator="out"/>
<feColorMatrix type="matrix" values="0 0 0 0 0 0 0 0 0 0 0 0 0 0 0 0 0 0 0.25 0"/>
<feBlend mode="normal" in2="BackgroundImageFix" result="effect1_dropShadow_605_2"/>
<feBlend mode="normal" in="SourceGraphic" in2="effect1_dropShadow_605_2" result="shape"/>
</filter>
</defs>
</svg>
