<svg width="45" height="45" viewBox="0 0 45 45" fill="none" xmlns="http://www.w3.org/2000/svg">
<g clip-path="url(#clip0_819_151)">
<path d="M39.375 15V13.125L33.75 16.875L28.125 13.125V15L33.75 18.75L39.375 15ZM41.25 5.625H3.75C1.67812 5.625 0 7.30312 0 9.375V35.625C0 37.6969 1.67812 39.375 3.75 39.375H41.25C43.3219 39.375 44.9812 37.6969 44.9812 35.625L45 9.375C45 7.30312 43.3219 5.625 41.25 5.625ZM15 11.25C18.1031 11.25 20.625 13.7719 20.625 16.875C20.625 19.9875 18.1031 22.5 15 22.5C11.8969 22.5 9.375 19.9875 9.375 16.875C9.375 13.7719 11.8969 11.25 15 11.25ZM26.25 33.75H3.75V31.875C3.75 28.125 11.25 26.0625 15 26.0625C18.75 26.0625 26.25 28.125 26.25 31.875V33.75ZM41.25 22.5H26.25V11.25H41.25V22.5Z" fill="#2E0099"/>
</g>
<defs>
<clipPath id="clip0_819_151">
<rect width="45" height="45" fill="white"/>
</clipPath>
</defs>
</svg>
