<svg width="45" height="45" viewBox="0 0 45 45" fill="none" xmlns="http://www.w3.org/2000/svg">
<g clip-path="url(#clip0_819_159)">
<path d="M28.8004 23.8499L23.4904 18.5399V17.0999C27.5404 16.6499 30.6904 13.2299 30.6904 8.9999C30.6904 4.4999 27.0904 0.899902 22.5904 0.899902C18.0904 0.899902 14.4904 4.4999 14.4904 8.9999C14.4904 13.1399 17.6404 16.6499 21.6904 17.0999V18.5399L16.3804 23.8499C16.2004 24.0299 16.1104 24.2099 16.1104 24.4799C16.1104 24.7499 16.2004 24.9299 16.3804 25.1099L21.9604 30.6899C22.1404 30.8699 22.3204 30.9599 22.5904 30.9599C22.8604 30.9599 23.0404 30.8699 23.2204 30.6899L28.8004 25.1099C29.1604 24.7499 29.1604 24.1199 28.8004 23.8499ZM19.4404 6.3899H25.7404C26.2804 6.3899 26.6404 6.7499 26.6404 7.2899C26.6404 7.8299 26.2804 8.1899 25.7404 8.1899H19.4404C18.9004 8.1899 18.5404 7.8299 18.5404 7.2899C18.5404 6.7499 18.9004 6.3899 19.4404 6.3899ZM19.4404 11.6099C18.9004 11.6099 18.5404 11.2499 18.5404 10.7099C18.5404 10.1699 18.9004 9.8099 19.4404 9.8099H25.7404C26.2804 9.8099 26.6404 10.1699 26.6404 10.7099C26.6404 11.2499 26.2804 11.6099 25.7404 11.6099H19.4404ZM30.6904 25.3799H35.1004V30.7799H36.9004V24.4799C36.9004 24.2099 36.8104 24.0299 36.6304 23.8499C36.4504 23.6699 36.2704 23.5799 36.0004 23.5799H30.6904C30.8704 24.1199 30.8704 24.7499 30.6904 25.3799ZM10.0804 25.2899H14.4904C14.3104 24.7499 14.3104 24.1199 14.4904 23.4899H9.18039C8.91039 23.4899 8.73039 23.5799 8.55039 23.7599C8.37039 23.9399 8.28039 24.1199 8.28039 24.3899V30.6899H10.0804V25.2899ZM16.2904 32.4899H1.80039C1.26039 32.4899 0.900391 32.9399 0.900391 33.3899V43.1999C0.900391 43.7399 1.26039 44.0999 1.80039 44.0999H16.2904C16.7404 44.0999 17.1904 43.7399 17.1904 43.1999V33.3899C17.1904 32.8499 16.8304 32.4899 16.2904 32.4899ZM43.2004 32.4899H28.7104C28.1704 32.4899 27.8104 32.9399 27.8104 33.3899V43.1999C27.8104 43.7399 28.1704 44.0999 28.7104 44.0999H43.2004C43.7404 44.0999 44.1004 43.7399 44.1004 43.1999V33.3899C44.1004 32.8499 43.7404 32.4899 43.2004 32.4899Z" fill="#2E0099"/>
</g>
<defs>
<clipPath id="clip0_819_159">
<rect width="45" height="45" fill="white"/>
</clipPath>
</defs>
</svg>
