<svg width="36" height="36" viewBox="0 0 36 36" fill="none" xmlns="http://www.w3.org/2000/svg">
<rect opacity="0.01" width="36" height="36" fill="#D8D8D8"/>
<circle cx="18" cy="18" r="12" fill="#00A500"/>
<path fill-rule="evenodd" clip-rule="evenodd" d="M17.9984 12.7397H18.0016C20.9013 12.7397 23.2603 15.0995 23.2603 18.0003C23.2603 20.9008 20.9013 23.2605 18.0016 23.2605C16.9317 23.2605 15.9392 22.9419 15.1077 22.3915L13.0856 23.0376L13.7411 21.0832C13.1107 20.2173 12.7395 19.1504 12.7395 18C12.7395 15.0995 15.0984 12.7397 17.9984 12.7397ZM20.0293 20.9101C20.4315 20.8235 20.9352 20.5264 21.0621 20.1677C21.1891 19.8091 21.1891 19.5029 21.1523 19.4376C21.1225 19.3858 21.0517 19.3517 20.9461 19.301C20.9191 19.288 20.8899 19.2739 20.8584 19.2581C20.7037 19.1808 19.9525 18.8096 19.8104 18.7603C19.6712 18.7077 19.5384 18.7264 19.4333 18.8749C19.4104 18.9069 19.3875 18.939 19.3648 18.9708C19.2404 19.145 19.1213 19.3119 19.0219 19.4192C18.9291 19.5181 18.7776 19.5304 18.6507 19.4779C18.6365 19.4719 18.6201 19.4653 18.6018 19.4579C18.4005 19.3763 17.9557 19.1961 17.4173 18.7171C16.9629 18.312 16.6536 17.808 16.564 17.6565C16.4757 17.5039 16.5526 17.4141 16.6232 17.3317L16.6256 17.3288C16.6696 17.2744 16.7125 17.2289 16.7556 17.1833C16.7883 17.1487 16.821 17.114 16.8544 17.0752C16.8593 17.0695 16.8641 17.064 16.8688 17.0586C16.9372 16.9795 16.9779 16.9325 17.0248 16.8339C17.0771 16.7317 17.0403 16.6269 17.0027 16.5493C16.9765 16.4943 16.8126 16.0964 16.6744 15.7612C16.6185 15.6253 16.5667 15.4998 16.5301 15.4115C16.428 15.1672 16.3507 15.1579 16.196 15.1515C16.1437 15.1485 16.0848 15.1456 16.02 15.1456C15.8189 15.1456 15.6088 15.2043 15.4819 15.3341C15.4775 15.3386 15.473 15.3432 15.4683 15.348C15.306 15.513 14.944 15.881 14.944 16.6144C14.944 17.3461 15.4615 18.0546 15.5602 18.1898C15.5633 18.194 15.566 18.1977 15.5683 18.2008C15.574 18.2084 15.5849 18.2241 15.6007 18.247C15.797 18.5315 16.7561 19.9215 18.1869 20.5141C19.3955 21.0152 19.7547 20.9685 20.0293 20.9101Z" fill="white"/>
</svg>
