<svg width="36" height="36" viewBox="0 0 36 36" fill="none" xmlns="http://www.w3.org/2000/svg">
<rect opacity="0.01" width="36" height="36" fill="#D8D8D8"/>
<circle cx="18" cy="18" r="12" fill="#1CB7EB"/>
<path fill-rule="evenodd" clip-rule="evenodd" d="M24.4 13.6999C23.95 13.9499 23.4 14.0999 22.9 14.1499C23.45 13.7999 23.85 13.2499 24.05 12.5999C23.55 12.8999 23 13.1499 22.35 13.2999C21.85 12.7499 21.2 12.3999 20.45 12.3999C19 12.3999 17.8 13.6499 17.8 15.2499C17.8 15.4499 17.8 15.6999 17.85 15.8999C15.65 15.7999 13.7 14.6499 12.4 12.9499C12.15 13.3499 12.05 13.8499 12.05 14.3999C12.05 15.3999 12.5 16.2499 13.2 16.7499C12.75 16.7499 12.35 16.5999 12 16.3999V16.4499C12 17.7999 12.9 18.9499 14.1 19.2499C13.9 19.2999 13.65 19.3499 13.4 19.3499C13.25 19.3499 13.05 19.3499 12.9 19.2999C13.25 20.4499 14.2 21.2499 15.35 21.2499C14.45 21.9999 13.3 22.4499 12.1 22.4499C11.9 22.4499 11.7 22.4499 11.45 22.3999C12.6 23.1999 14 23.6999 15.5 23.6999C20.35 23.6999 23 19.3999 23 15.6499C23 15.5499 23 15.3999 23 15.2999C23.6 14.7999 24.05 14.2999 24.4 13.6999Z" fill="white"/>
</svg>
