<svg width="50" height="56" viewBox="0 0 50 56" fill="none" xmlns="http://www.w3.org/2000/svg">
<g clip-path="url(#clip0_755_2)">
<path d="M47.1858 22.9488L8.32694 0.743755C7.48142 0.255583 6.52211 -0.000961841 5.54578 2.70985e-06C4.56945 0.000967261 3.61065 0.259406 2.76609 0.749247C1.92154 1.23909 1.22111 1.94301 0.735474 2.78998C0.249833 3.63696 -0.00384101 4.59703 4.39611e-05 5.57335V49.9835C-0.00384101 50.9598 0.249833 51.9199 0.735474 52.7669C1.22111 53.6138 1.92154 54.3177 2.76609 54.8076C3.61065 55.2974 4.56945 55.5559 5.54578 55.5568C6.52211 55.5578 7.48142 55.3013 8.32694 54.8131L47.1858 32.608C48.0401 32.1238 48.7507 31.4217 49.2451 30.5733C49.7395 29.7248 50 28.7604 50 27.7784C50 26.7964 49.7395 25.832 49.2451 24.9836C48.7507 24.1351 48.0401 23.433 47.1858 22.9488Z" fill="#2E0099"/>
</g>
<defs>
<clipPath id="clip0_755_2">
<rect width="50" height="56" fill="white"/>
</clipPath>
</defs>
</svg>
