<svg width="896" height="770" viewBox="0 0 896 770" fill="none" xmlns="http://www.w3.org/2000/svg">
<path d="M890.027 360.68C886.473 352.824 881.144 345.647 874.347 339.56L501.013 19.56C494.052 13.5928 485.787 8.85928 476.691 5.62982C467.595 2.40036 457.846 0.738159 448 0.738159C428.116 0.738159 409.047 7.50859 394.987 19.56C388.025 25.5273 382.502 32.6115 378.735 40.4081C374.967 48.2047 373.028 56.561 373.028 65C373.028 82.0433 380.927 98.3886 394.987 110.44L641.387 321H74.6667C54.8638 321 35.8721 327.743 21.8694 339.745C7.86666 351.748 0 368.026 0 385C0 401.974 7.86666 418.253 21.8694 430.255C35.8721 442.257 54.8638 449 74.6667 449H641.387L394.987 659.56C387.988 665.51 382.434 672.588 378.643 680.387C374.852 688.186 372.9 696.551 372.9 705C372.9 713.449 374.852 721.814 378.643 729.613C382.434 737.412 387.988 744.49 394.987 750.44C401.928 756.439 410.186 761.2 419.285 764.449C428.384 767.698 438.143 769.371 448 769.371C457.857 769.371 467.616 767.698 476.715 764.449C485.814 761.2 494.072 756.439 501.013 750.44L874.347 430.44C881.144 424.353 886.473 417.176 890.027 409.32C897.495 393.739 897.495 376.262 890.027 360.68Z" fill="white"/>
</svg>
