<svg width="36" height="36" viewBox="0 0 36 36" fill="none" xmlns="http://www.w3.org/2000/svg">
<g clip-path="url(#clip0_671_90)">
<path d="M16.4157 8.712H19.5837V5.904H22.3197V2.736H19.5837V0H16.4157V2.736H13.6797V5.904H16.4157V8.712Z" fill="#FF2F86"/>
<path d="M32.3999 4.31982H23.9759V7.55982H21.2399V10.3678H14.7599V7.55982H12.0239V4.31982H3.59993L-1.87207 11.3758H37.8719L32.3999 4.31982Z" fill="#F9A6C9"/>
<path d="M22.248 26.1357H13.752V35.9997H22.248V26.1357Z" fill="#F9A6C9"/>
<path d="M0.21582 36.0002H12.0958V25.3442C12.0958 24.9122 12.4558 24.5522 12.8878 24.5522H23.0398C23.4718 24.5522 23.8318 24.9122 23.8318 25.3442V36.0002H35.7118V13.0322H0.21582V36.0002ZM27.7198 16.2002H32.1838V20.6642H27.7198V16.2002ZM27.7198 26.4962H32.1838V30.9602H27.7198V26.4962ZM19.7278 16.2002H24.1918V20.6642H19.7278V16.2002ZM11.8078 16.2002H16.2718V20.6642H11.8078V16.2002ZM3.88782 16.2002H8.35182V20.6642H3.88782V16.2002ZM3.88782 26.4962H8.35182V30.9602H3.88782V26.4962Z" fill="#F9A6C9"/>
</g>
<defs>
<clipPath id="clip0_671_90">
<rect width="36" height="36" fill="white"/>
</clipPath>
</defs>
</svg>
