<svg width="37" height="37" viewBox="0 0 37 37" fill="none" xmlns="http://www.w3.org/2000/svg">
<path d="M21.2416 10.2075H21.2429C22.0435 10.2075 22.7969 10.5188 23.3627 11.0853C23.9286 11.6518 24.2411 12.4052 24.2411 13.2064V14.8632C24.2411 16.5167 22.8964 17.8621 21.2422 17.8627C20.6234 17.8627 20.0123 17.7638 19.4254 17.5673L19.1377 17.4717V24.2414H27.4308V19.1545L35.7239 25.2359V17.4717L35.4349 17.568C34.8487 17.7632 34.2382 17.8621 33.62 17.8621C31.9659 17.8621 30.6205 16.5167 30.6205 14.8632V13.2058C30.6205 11.5523 31.9659 10.2069 33.6194 10.2069C34.2388 10.2069 34.8499 10.3058 35.4368 10.5023L35.7239 10.5979V5.74138C35.7239 5.38924 35.4381 5.10345 35.086 5.10345H28.4591L29.2368 2.77245C29.3082 2.55747 29.3446 2.33355 29.3446 2.10645C29.3446 0.944776 28.3998 0 27.2381 0H26.3476C25.1859 0 24.2411 0.944776 24.2411 2.10709C24.2411 2.33355 24.2775 2.55747 24.349 2.77245L25.1266 5.10345H19.7756C19.4235 5.10345 19.1377 5.38924 19.1377 5.74138V10.5979L19.426 10.5023C20.0129 10.3064 20.6234 10.2075 21.2416 10.2075Z" fill="#BDDF93"/>
<path d="M4.01403 22.0947C4.29472 22.3761 4.61624 22.2708 4.70937 22.2344C4.80124 22.1955 5.10298 22.0399 5.10298 21.6444V20.4138H10.2064V21.6444C10.2064 22.0399 10.5082 22.1955 10.6 22.2344C10.6925 22.2714 11.0147 22.3761 11.2954 22.0954L12.1661 21.2259L15.1823 24.2414H17.8616V15.702L19.829 16.3566C20.2857 16.509 20.761 16.5862 21.242 16.5862C22.1919 16.5862 22.965 15.813 22.965 14.8632V13.2064C22.965 12.7459 22.7858 12.3133 22.4604 11.988C22.1351 11.662 21.7026 11.4834 21.2426 11.4834H21.2414C20.761 11.4834 20.2857 11.5606 19.829 11.7124L17.8616 12.3688V5.74138C17.8616 5.38924 17.5758 5.10345 17.2237 5.10345H10.5968L11.3745 2.77245C11.4459 2.55747 11.4823 2.33355 11.4823 2.10645C11.4823 0.944776 10.5375 0 9.37584 0H8.48529C7.32361 0 6.37884 0.944776 6.37884 2.10709C6.37884 2.33355 6.4152 2.55747 6.48665 2.77245L7.26429 5.10345H1.91332C1.56118 5.10345 1.27539 5.38924 1.27539 5.74138V23.0931L3.14325 21.2252L4.01403 22.0947ZM14.6719 12.1207C15.3769 12.1207 15.9478 12.6916 15.9478 13.3966C15.9478 14.1015 15.3769 14.6724 14.6719 14.6724C13.967 14.6724 13.3961 14.1015 13.3961 13.3966C13.3961 12.6916 13.967 12.1207 14.6719 12.1207ZM9.56849 12.1207C10.2734 12.1207 10.8444 12.6916 10.8444 13.3966C10.8444 14.1015 10.2734 14.6724 9.56849 14.6724C8.86358 14.6724 8.29263 14.1015 8.29263 13.3966C8.29263 12.6916 8.86358 12.1207 9.56849 12.1207ZM4.46505 12.1207C5.16996 12.1207 5.74091 12.6916 5.74091 13.3966C5.74091 14.1015 5.16996 14.6724 4.46505 14.6724C3.76013 14.6724 3.18918 14.1015 3.18918 13.3966C3.18918 12.6916 3.76013 12.1207 4.46505 12.1207Z" fill="#BDDF93"/>
<path d="M36.6156 27.4728L28.7072 21.6733V25.5175H15.0925L14.9062 25.7044C14.6261 25.9838 14.7289 26.3066 14.7665 26.3998C14.8048 26.4916 14.9604 26.7934 15.3559 26.7934H16.5865V30.621H28.7072V34.3273L36.6156 27.4728Z" fill="#6ABD00"/>
<path d="M13.5873 26.8872C13.2913 26.1727 13.4393 25.3899 13.9713 24.8343L12.166 23.029C11.6116 23.5604 10.8295 23.709 10.1131 23.413C9.398 23.117 8.9489 22.4593 8.93167 21.6899H6.37867C6.36209 22.4593 5.91298 23.117 5.19722 23.413C4.48147 23.709 3.70064 23.561 3.14436 23.029L1.33966 24.8349C1.87169 25.3906 2.01905 26.1733 1.72369 26.8878C1.42705 27.6029 0.769345 28.052 0 28.0686V30.6216C0.769345 30.6382 1.42705 31.0873 1.72305 31.8031C2.01905 32.5175 1.87105 33.3003 1.33902 33.8559L3.14436 35.6613C3.7 35.1299 4.4821 34.9825 5.19722 35.2772C5.91235 35.5732 6.36145 36.2309 6.37867 37.0003H8.93167C8.94826 36.2309 9.39736 35.5732 10.1131 35.2772C10.8289 34.9812 11.6097 35.1286 12.166 35.6613L13.9713 33.8559C13.4393 33.3003 13.2919 32.5175 13.5873 31.8031C13.8833 31.0879 14.541 30.6388 15.3103 30.6216V28.0686C14.541 28.052 13.8833 27.6029 13.5873 26.8872ZM7.65517 33.8106C5.18893 33.8106 3.18966 31.8114 3.18966 29.3451C3.18966 26.8789 5.18893 24.8796 7.65517 24.8796C10.1214 24.8796 12.1207 26.8789 12.1207 29.3451C12.1207 31.8114 10.1214 33.8106 7.65517 33.8106Z" fill="#6ABD00"/>
<path d="M7.655 31.2583C8.71196 31.2583 9.5688 30.4014 9.5688 29.3445C9.5688 28.2875 8.71196 27.4307 7.655 27.4307C6.59805 27.4307 5.74121 28.2875 5.74121 29.3445C5.74121 30.4014 6.59805 31.2583 7.655 31.2583Z" fill="#6ABD00"/>
</svg>
