<svg width="12" height="12" viewBox="0 0 12 12" fill="none" xmlns="http://www.w3.org/2000/svg">
<path d="M0.969017 11.0275C1.10467 11.1631 1.28864 11.2393 1.48045 11.2393C1.67227 11.2393 1.85624 11.1631 1.99189 11.0275L5.99658 7.02279L10.0013 11.0275C10.1377 11.1593 10.3204 11.2322 10.5101 11.2305C10.6998 11.2289 10.8812 11.1528 11.0153 11.0187C11.1495 10.8846 11.2255 10.7031 11.2272 10.5134C11.2288 10.3238 11.1559 10.141 11.0242 10.0046L7.01946 5.99992L11.0242 1.99523C11.1559 1.85879 11.2288 1.67606 11.2272 1.48639C11.2255 1.29672 11.1495 1.11529 11.0153 0.981163C10.8812 0.847041 10.6998 0.770963 10.5101 0.769314C10.3204 0.767666 10.1377 0.84058 10.0013 0.972351L5.99658 4.97704L1.99189 0.972351C1.85546 0.84058 1.67273 0.767666 1.48306 0.769314C1.29339 0.770963 1.11195 0.847041 0.977828 0.981163C0.843706 1.11529 0.767628 1.29672 0.76598 1.48639C0.764331 1.67606 0.837245 1.85879 0.969017 1.99523L4.97371 5.99992L0.969017 10.0046C0.833402 10.1403 0.757217 10.3242 0.757217 10.516C0.757217 10.7079 0.833402 10.8918 0.969017 11.0275Z" fill="#fff"/>
</svg>
