<svg width="22" height="14" viewBox="0 0 22 14" fill="none" xmlns="http://www.w3.org/2000/svg">
<path d="M1 12.694V1.685C1 1.67225 1.01911 1.55121 1.05734 1.32185L7.53659 6.86457L1.07645 13.0762C1.02548 12.8979 1 12.7704 1 12.694ZM1.86008 0.557338C1.94927 0.519113 2.05758 0.5 2.185 0.5H19.635C19.7497 0.5 19.8644 0.519113 19.979 0.557338L13.4807 6.11917L12.6206 6.80723L10.9196 8.20247L9.21851 6.80723L8.35844 6.11917L1.86008 0.557338ZM1.87919 13.8216L8.39666 7.57175L10.9196 9.61682L13.4424 7.57175L19.9599 13.8216C19.858 13.8599 19.7497 13.879 19.635 13.879H2.185C2.08306 13.879 1.98112 13.8599 1.87919 13.8216ZM14.3025 6.86457L20.7627 1.32185C20.8009 1.43653 20.82 1.55758 20.82 1.685V12.694C20.82 12.8087 20.8009 12.9361 20.7627 13.0762L14.3025 6.86457Z" fill="#FFE500"/>
</svg>
