<svg width="22" height="21" viewBox="0 0 22 21" fill="none" xmlns="http://www.w3.org/2000/svg">
<g clip-path="url(#clip0_651_21)">
<path fill-rule="evenodd" clip-rule="evenodd" d="M6.61818 0.06246C7.72859 0.0115645 8.08253 0 10.91 0C13.738 0 14.0914 0.0121418 15.2012 0.06246C16.3099 0.112778 17.0669 0.289171 17.7291 0.546525C18.4237 0.808015 19.0528 1.21772 19.5728 1.74715C20.1023 2.26711 20.5121 2.89631 20.7735 3.59087C21.0308 4.25306 21.2066 5.01011 21.2575 6.11818C21.3085 7.22859 21.32 7.58253 21.32 10.41C21.32 13.2375 21.3079 13.5914 21.2575 14.7019C21.2072 15.8099 21.0308 16.5669 20.7735 17.2291C20.5075 17.9133 20.1511 18.4945 19.5728 19.0728C19.0529 19.6023 18.4237 20.0121 17.7291 20.2735C17.0669 20.5308 16.3099 20.7066 15.2019 20.7575C14.0914 20.8085 13.7375 20.82 10.91 20.82C8.08253 20.82 7.72859 20.8079 6.61818 20.7575C5.51011 20.7072 4.75306 20.5308 4.09087 20.2735C3.4067 20.0075 2.82548 19.6511 2.24715 19.0728C1.71763 18.5529 1.30789 17.9237 1.04653 17.2291C0.789171 16.5669 0.613355 15.8099 0.56246 14.7019C0.511565 13.5914 0.5 13.238 0.5 10.41C0.5 7.58195 0.512142 7.22859 0.56246 6.11877C0.612778 5.01011 0.789171 4.25306 1.04653 3.59087C1.30801 2.89636 1.71772 2.26718 2.24715 1.74715C2.7671 1.21763 3.3963 0.807892 4.09087 0.546525C4.75306 0.289171 5.51011 0.113355 6.61818 0.06246ZM15.1168 1.93626C14.0191 1.88652 13.6895 1.87553 10.91 1.87553C8.13053 1.87553 7.80088 1.88652 6.70321 1.93626C5.68823 1.98253 5.13708 2.15197 4.77041 2.29483C4.28461 2.48336 3.93761 2.70891 3.57326 3.07326C3.2095 3.43761 2.98336 3.78461 2.79483 4.27041C2.65197 4.63708 2.48253 5.18823 2.43626 6.20321C2.38652 7.30088 2.37553 7.63053 2.37553 10.41C2.37553 13.1895 2.38652 13.5191 2.43626 14.6168C2.48253 15.6318 2.65197 16.1829 2.79483 16.5496C2.9616 17.0018 3.2276 17.4108 3.57326 17.7468C3.90912 18.0924 4.31821 18.3584 4.77041 18.5252C5.13708 18.6681 5.68823 18.8375 6.70321 18.8837C7.80088 18.9335 8.12995 18.9445 10.91 18.9445C13.69 18.9445 14.0191 18.9335 15.1168 18.8837C16.1318 18.8375 16.6829 18.6681 17.0496 18.5252C17.5354 18.3366 17.8824 18.1111 18.2468 17.7468C18.5924 17.4109 18.8584 17.0018 19.0252 16.5496C19.1681 16.1829 19.3375 15.6318 19.3837 14.6168C19.4335 13.5191 19.4445 13.1895 19.4445 10.41C19.4445 7.63053 19.4335 7.30088 19.3837 6.20321C19.3375 5.18823 19.1681 4.63708 19.0252 4.27041C18.8366 3.78461 18.6111 3.43761 18.2468 3.07326C17.8824 2.7095 17.5354 2.48336 17.0496 2.29483C16.6829 2.15197 16.1318 1.98253 15.1168 1.93626ZM9.58083 13.619C10.0022 13.7936 10.4538 13.8834 10.91 13.8834C11.8313 13.8834 12.7147 13.5175 13.3661 12.8661C14.0176 12.2147 14.3835 11.3312 14.3835 10.41C14.3835 9.48881 14.0176 8.60528 13.3661 7.95388C12.7147 7.30248 11.8313 6.93652 10.91 6.93652C10.4538 6.93652 10.0022 7.02637 9.58083 7.20093C9.15932 7.37548 8.77645 7.63133 8.45391 7.95388C8.13137 8.27642 7.87551 8.65932 7.70096 9.08074C7.5264 9.50215 7.43656 9.95385 7.43656 10.41C7.43656 10.8661 7.5264 11.3178 7.70096 11.7393C7.87551 12.1607 8.13137 12.5436 8.45391 12.8661C8.77645 13.1886 9.15932 13.4445 9.58083 13.619ZM7.12649 6.62645C8.12994 5.62299 9.49093 5.05925 10.91 5.05925C12.3292 5.05925 13.6901 5.62299 14.6936 6.62645C15.697 7.62991 16.2607 8.99093 16.2607 10.41C16.2607 11.8291 15.697 13.19 14.6936 14.1936C13.6901 15.197 12.3292 15.7607 10.91 15.7607C9.49093 15.7607 8.12994 15.197 7.12649 14.1936C6.12303 13.19 5.55929 11.8291 5.55929 10.41C5.55929 8.99093 6.12303 7.62991 7.12649 6.62645ZM17.4472 5.85646C17.6844 5.61925 17.8176 5.29754 17.8176 4.9621C17.8176 4.62664 17.6844 4.30493 17.4472 4.06774C17.2099 3.83054 16.8883 3.69728 16.5528 3.69728C16.2174 3.69728 15.8956 3.83054 15.6585 4.06774C15.4212 4.30493 15.288 4.62664 15.288 4.9621C15.288 5.29754 15.4212 5.61925 15.6585 5.85646C15.8956 6.09365 16.2174 6.22691 16.5528 6.22691C16.8883 6.22691 17.2099 6.09365 17.4472 5.85646Z" fill="#FFE500"/>
</g>
<defs>
<clipPath id="clip0_651_21">
<rect width="21" height="21" fill="white" transform="translate(0.5)"/>
</clipPath>
</defs>
</svg>
