<svg width="19" height="23" viewBox="0 0 19 23" fill="none" xmlns="http://www.w3.org/2000/svg">
<path d="M8.5457 22.4742C2.18134 13.2478 1 12.3009 1 8.91001C1 4.26527 4.76527 0.5 9.41 0.5C14.0547 0.5 17.82 4.26527 17.82 8.91001C17.82 12.3009 16.6387 13.2478 10.2743 22.4742C9.85665 23.0775 8.96331 23.0775 8.5457 22.4742ZM9.41 12.4142C11.3453 12.4142 12.9142 10.8453 12.9142 8.91001C12.9142 6.9747 11.3453 5.40584 9.41 5.40584C7.47469 5.40584 5.90583 6.9747 5.90583 8.91001C5.90583 10.8453 7.47469 12.4142 9.41 12.4142Z" fill="#FFE500"/>
</svg>
