<svg width="20" height="19" viewBox="0 0 20 19" fill="none" xmlns="http://www.w3.org/2000/svg">
<g clip-path="url(#clip0_651_11)">
<path d="M9.92356 0C4.71891 0 0.5 4.21891 0.5 9.42356C0.5 13.4155 2.98441 16.8237 6.49054 18.1962C6.40741 17.4499 6.33372 16.3079 6.5212 15.4943C6.69335 14.7573 7.62663 10.8114 7.62663 10.8114C7.62663 10.8114 7.34423 10.2431 7.34423 9.41118C7.34423 8.10294 8.10594 7.12368 9.04865 7.12368C9.8534 7.12368 10.2431 7.72562 10.2431 8.4502C10.2431 9.2579 9.73018 10.4677 9.46311 11.5884C9.23908 12.5252 9.93299 13.2893 10.8574 13.2893C12.5312 13.2893 13.8206 11.5236 13.8206 8.97491C13.8206 6.7269 12.1993 5.14865 9.88406 5.14865C7.20332 5.14865 5.63096 7.16318 5.63096 9.23549C5.63096 10.0461 5.94107 10.9181 6.33136 11.388C6.408 11.4829 6.41743 11.566 6.39562 11.6615C6.32487 11.9563 6.1651 12.6043 6.13444 12.7334C6.09141 12.9085 5.99943 12.945 5.81844 12.8625C4.64521 12.3189 3.90531 10.5991 3.90531 9.21132C3.90531 6.24228 6.06723 3.50907 10.1328 3.50907C13.4002 3.50907 15.9424 5.84256 15.9424 8.95014C15.9424 12.2022 13.8943 14.8181 11.0449 14.8181C10.0898 14.8181 9.19309 14.3234 8.87709 13.7339L8.28753 15.9724C8.07587 16.7925 7.4981 17.8207 7.1084 18.4445C7.99274 18.7145 8.92307 18.8654 9.89939 18.8654C15.0952 18.8654 19.32 14.6494 19.32 9.44184C19.32 4.23718 15.0946 0.0212242 9.89939 0.0212242L9.92356 0Z" fill="#FFE500"/>
</g>
<defs>
<clipPath id="clip0_651_11">
<rect width="19" height="19" fill="white" transform="translate(0.5)"/>
</clipPath>
</defs>
</svg>
