<svg width="7" height="11" viewBox="0 0 7 11" fill="none" xmlns="http://www.w3.org/2000/svg">
<path d="M6.2463 4.88437L2.47234 1.1104C2.38959 1.02698 2.29115 0.96076 2.18268 0.915572C2.07422 0.870383 1.95788 0.847118 1.84038 0.847118C1.72288 0.847118 1.60654 0.870383 1.49807 0.915572C1.38961 0.96076 1.29116 1.02698 1.20842 1.1104C1.04264 1.27717 0.949587 1.50277 0.949587 1.73792C0.949587 1.97306 1.04264 2.19866 1.20842 2.36543L4.35932 5.51633L1.20842 8.66724C1.04264 8.83401 0.949587 9.0596 0.949587 9.29475C0.949587 9.5299 1.04264 9.75549 1.20842 9.92226C1.29159 10.0048 1.39022 10.07 1.49867 10.1143C1.60711 10.1586 1.72324 10.1811 1.84038 10.1804C1.95752 10.1811 2.07364 10.1586 2.18209 10.1143C2.29053 10.07 2.38917 10.0048 2.47234 9.92226L6.2463 6.14829C6.32973 6.06555 6.39594 5.9671 6.44113 5.85864C6.48632 5.75017 6.50959 5.63383 6.50959 5.51633C6.50959 5.39883 6.48632 5.28249 6.44113 5.17403C6.39594 5.06556 6.32973 4.96712 6.2463 4.88437Z" fill="black"/>
</svg>
