<svg width="37" height="37" viewBox="0 0 37 37" fill="none" xmlns="http://www.w3.org/2000/svg">
<path d="M28.6366 27.1902L36.5204 35.074C36.9199 35.4734 36.9199 36.121 36.5204 36.5204C36.121 36.9199 35.4734 36.9199 35.074 36.5204L27.1902 28.6366C24.3052 31.1835 20.5153 32.7289 16.3644 32.7289C7.32661 32.7289 0 25.4023 0 16.3644C0 7.32661 7.32661 0 16.3644 0C25.4023 0 32.7289 7.32661 32.7289 16.3644C32.7289 20.5153 31.1835 24.3052 28.6366 27.1902ZM16.3644 30.6833C24.2725 30.6833 30.6833 24.2725 30.6833 16.3644C30.6833 8.45634 24.2725 2.04556 16.3644 2.04556C8.45634 2.04556 2.04556 8.45634 2.04556 16.3644C2.04556 24.2725 8.45634 30.6833 16.3644 30.6833Z" fill="#E63A27"/>
</svg>
