<svg width="18" height="14" viewBox="0 0 18 14" fill="none" xmlns="http://www.w3.org/2000/svg">
<g clip-path="url(#clip0_651_15)">
<path d="M17.2879 1.62891C16.6693 1.90013 16.007 2.08673 15.309 2.17136C16.0212 1.74402 16.5657 1.06807 16.8254 0.262812C16.1573 0.651775 15.4183 0.93351 14.6325 1.09277C14.0059 0.422077 13.1103 0 12.1163 0C10.2109 0 8.66664 1.54376 8.66664 3.44652C8.66664 3.72037 8.69975 3.98318 8.75704 4.23233C5.89081 4.0983 3.34994 2.72116 1.65059 0.640737C1.35204 1.14744 1.18226 1.73614 1.18226 2.37688C1.18226 3.57583 1.79251 4.62707 2.71498 5.24521C2.15099 5.22892 1.62011 5.0728 1.15493 4.81577V4.8573C1.15493 6.52931 2.34284 7.92327 3.91972 8.24075C3.6322 8.31696 3.32523 8.36111 3.01354 8.36111C2.79225 8.36111 2.58095 8.33956 2.37017 8.30067C2.8138 9.66939 4.08371 10.666 5.59751 10.6959C4.42064 11.6184 2.92891 12.1682 1.32155 12.1682C1.0477 12.1682 0.774376 12.1551 0.5 12.122C2.03325 13.0996 3.84297 13.6715 5.79777 13.6715C12.1405 13.6715 15.6065 8.41788 15.6065 3.86807C15.6065 3.723 15.6065 3.5753 15.5954 3.42707C16.2719 2.94508 16.8574 2.3343 17.32 1.64205L17.2879 1.62891Z" fill="#FFE500"/>
</g>
<defs>
<clipPath id="clip0_651_15">
<rect width="17" height="14" fill="white" transform="translate(0.5)"/>
</clipPath>
</defs>
</svg>
