<svg width="20" height="21" viewBox="0 0 20 21" fill="none" xmlns="http://www.w3.org/2000/svg">
<path d="M12.4979 17.9143C12.1039 16.8183 10.6929 13.1393 10.1079 11.6173C9.0049 12.3543 7.7739 13.0523 6.5959 13.5453C6.2299 14.8253 5.5019 17.2543 5.1499 17.5783C4.5459 18.1353 4.3179 18.0633 4.2249 17.2993C4.1319 16.5353 3.7399 14.0633 3.7399 14.0633C3.7399 14.0633 1.5779 12.8443 0.899903 12.4953C0.221903 12.1463 0.232903 11.9043 0.956903 11.5213C1.3789 11.2983 3.8839 11.4363 5.1989 11.5263C6.0599 10.5753 7.1299 9.64432 8.1919 8.84732C6.9769 7.77132 4.0419 5.17232 3.1579 4.42332C2.3819 3.76532 3.2369 3.62632 3.2369 3.62632C3.6269 3.55632 4.4589 3.49432 4.8649 3.61732C7.3889 4.38032 11.3069 5.68532 12.2279 5.99332L13.3899 5.17232C18.0919 1.84232 19.2769 2.57932 19.5009 2.90232C19.7249 3.22532 20.0039 4.60332 15.3019 7.93432L14.1419 8.75732C14.1129 9.73732 13.9849 13.9083 13.8309 16.5683C13.8059 16.9963 13.4639 17.7663 13.2659 18.1123C13.2659 18.1123 12.8429 18.8773 12.4979 17.9143Z" fill="#364F6B"/>
</svg>
