<svg width="16" height="16" viewBox="0 0 16 16" fill="none" xmlns="http://www.w3.org/2000/svg">
<path d="M12.82 10.173L11.1267 9.97968C10.9276 9.9563 10.7258 9.97834 10.5364 10.0442C10.347 10.11 10.175 10.2179 10.0334 10.3597L8.80669 11.5863C6.91415 10.6238 5.37588 9.08556 4.41336 7.19302L5.64669 5.95968C5.93336 5.67301 6.07336 5.27302 6.02669 4.86635L5.83336 3.18635C5.79556 2.86113 5.63949 2.56117 5.39485 2.34358C5.15021 2.12599 4.8341 2.00596 4.50669 2.00635H3.35336C2.60003 2.00635 1.97336 2.63302 2.02003 3.38635C2.37336 9.07968 6.92669 13.6263 12.6134 13.9797C13.3667 14.0263 13.9934 13.3997 13.9934 12.6463V11.493C14 10.8197 13.4934 10.253 12.82 10.173Z" fill="#FFE500"/>
</svg>
