<svg width="18" height="18" viewBox="0 0 18 18" fill="none" xmlns="http://www.w3.org/2000/svg">
<path fill-rule="evenodd" clip-rule="evenodd" d="M8.23059 4.69147C8.67006 5.17862 8.53072 5.7305 8.14214 6.25417C8.05 6.37832 7.94383 6.50063 7.81555 6.63543C7.75399 6.70014 7.706 6.74878 7.60558 6.84929C7.37757 7.07755 7.18587 7.26934 7.03051 7.42471C6.95518 7.50004 7.46955 8.52788 8.46778 9.52711C9.4655 10.5258 10.4933 11.0405 10.569 10.9648L11.1437 10.3898C11.4601 10.073 11.6277 9.92016 11.858 9.76907C12.3368 9.45497 12.859 9.36961 13.2995 9.76342C14.7375 10.7921 15.5513 11.4233 15.9499 11.8375C16.7275 12.6455 16.6256 13.8892 15.9544 14.5987C15.7216 14.8448 15.4264 15.1401 15.0778 15.4761C12.9692 17.5859 8.51893 16.302 5.10829 12.888C1.69689 9.47324 0.413616 5.02256 2.51786 2.91719C2.89564 2.53348 3.02017 2.40898 3.38809 2.04647C4.07308 1.37152 5.37417 1.26584 6.16509 2.04713C6.58111 2.4581 7.24437 3.31148 8.23059 4.69147ZM12.2039 11.4503L11.6291 12.0254C10.652 13.003 8.98812 12.1697 7.40749 10.5875C5.82577 9.00428 4.9934 7.34098 5.97078 6.3637C6.12592 6.20856 6.31744 6.01695 6.54529 5.78887C6.63723 5.69684 6.67928 5.6542 6.72975 5.60117C6.79853 5.52888 6.85503 5.46541 6.90028 5.40922C6.02626 4.19173 5.43211 3.43096 5.11182 3.11456C4.9464 2.95114 4.576 2.98123 4.44001 3.11521C4.07736 3.47256 3.95815 3.59172 3.58191 3.97384C2.22867 5.32782 3.26461 8.92071 6.1686 11.8276C9.07168 14.7335 12.664 15.7699 14.0276 14.4058C14.3707 14.0748 14.6504 13.795 14.8656 13.5675C15.0212 13.4031 15.049 13.0639 14.87 12.878C14.5721 12.5684 13.8425 11.9995 12.5827 11.0949C12.4909 11.1688 12.378 11.276 12.2039 11.4503ZM10.241 1.55281C13.4835 1.94584 16.0545 4.51687 16.4476 7.75937L14.966 8.00629C14.6799 5.39451 12.6059 3.32046 9.99409 3.03439L10.241 1.55281ZM9.74695 4.51726C11.7281 4.69444 13.3059 6.2723 13.4831 8.25345L11.9968 8.50115C11.9337 7.1505 10.8499 6.06665 9.49923 6.00358L9.74695 4.51726Z" fill="#364F6B"/>
</svg>
