<svg width="18" height="18" viewBox="0 0 18 18" fill="none" xmlns="http://www.w3.org/2000/svg">
<g clip-path="url(#clip0_27_43)">
<mask id="mask0_27_43" style="mask-type:luminance" maskUnits="userSpaceOnUse" x="0" y="0" width="18" height="18">
<path d="M18 0H0V18H18V0Z" fill="white"/>
</mask>
<g mask="url(#mask0_27_43)">
<mask id="mask1_27_43" style="mask-type:luminance" maskUnits="userSpaceOnUse" x="0" y="0" width="18" height="18">
<path d="M18 0H0V18H18V0Z" fill="white"/>
</mask>
<g mask="url(#mask1_27_43)">
<path d="M5.49547 6.75195C5.28723 7.03545 5.31799 7.41253 5.56466 7.59347L8.53943 9.88845C8.55228 9.89804 8.56699 9.90384 8.58105 9.91214C8.58749 9.91565 8.59327 9.91948 8.59966 9.92236C8.85659 10.0656 9.19746 9.98966 9.42424 9.73977C9.43065 9.73273 9.43772 9.72791 9.44411 9.72089L13.0903 5.40742C13.2979 5.17452 13.3011 4.83977 13.0993 4.66004C12.8968 4.48001 12.565 4.52324 12.358 4.7558L8.95012 8.39659L6.31884 6.56417C6.07273 6.38322 5.70371 6.46715 5.49547 6.75195Z" fill="#364F6B"/>
<path d="M1.86202 8.99892C1.86202 8.84162 1.86504 8.68405 1.8817 8.5293H0.0144141C0.00305858 8.68403 0 8.84162 0 8.99892C0 9.15943 0.00305858 9.31416 0.0144141 9.46885H1.88174C1.86504 9.31416 1.86202 9.15653 1.86202 8.99892Z" fill="#364F6B"/>
<path d="M17.9868 8.5293H16.1195H16.0996V9.46885H16.1195H17.9868C17.9982 9.31416 18.0009 9.15653 18.0009 8.99892C18.0009 8.84162 17.9982 8.68403 17.9868 8.5293Z" fill="#364F6B"/>
<path d="M5.16383 2.97904C5.34018 2.8676 5.52043 2.76221 5.70333 2.66897C5.72862 2.65646 5.75009 2.64402 5.77475 2.6347L4.84415 1.01758C4.61145 1.13581 4.38431 1.2662 4.16406 1.40872L5.09518 3.02584C5.11725 3.01016 5.14189 2.99477 5.16383 2.97904Z" fill="#364F6B"/>
<path d="M1.01758 4.84415L2.63407 5.77477L3.02521 5.09536L1.40809 4.16406C1.26522 4.38445 1.135 4.61093 1.01758 4.84415Z" fill="#364F6B"/>
<path d="M15.3311 12.2948C15.2343 12.4777 15.1322 12.6577 15.0175 12.8313C15.0021 12.8534 14.9859 12.8781 14.9707 12.8999L16.5878 13.8304C16.7307 13.6104 16.8609 13.3871 16.9816 13.1545L15.3683 12.2207C15.3558 12.2451 15.3431 12.2701 15.3311 12.2948Z" fill="#364F6B"/>
<path d="M2.66816 12.2918L2.63101 12.2207L1.01758 13.1513C1.13226 13.3845 1.26522 13.6103 1.40809 13.8304L3.02521 12.8998C3.00998 12.878 2.99383 12.8534 2.97841 12.8313C2.86711 12.6577 2.76154 12.4776 2.66816 12.2918Z" fill="#364F6B"/>
<path d="M16.9816 4.84412C16.8636 4.61093 16.7307 4.38445 16.5878 4.16406L14.9707 5.09531L15.3649 5.77475L16.9816 4.84412Z" fill="#364F6B"/>
<path d="M5.16387 15.0175C5.14194 15.0021 5.1173 14.9864 5.09518 14.9707L4.16406 16.5878C4.38431 16.7307 4.61145 16.864 4.84417 16.9825L5.77475 15.365C5.75007 15.3561 5.72862 15.3433 5.70336 15.3311C5.52045 15.2376 5.34021 15.1325 5.16387 15.0175Z" fill="#364F6B"/>
<path d="M12.2227 2.63117L12.9023 3.02584L13.8334 1.40872C13.6131 1.2662 13.3894 1.13581 13.1569 1.01758L12.2227 2.63117Z" fill="#364F6B"/>
<path d="M8.5293 16.1191V17.9839C8.68439 17.998 8.84166 18.0009 8.9991 18.0009C9.15673 18.0009 9.31416 17.998 9.46908 17.9839V16.1191V16.0996H8.5293V16.1191Z" fill="#364F6B"/>
<path d="M9.46908 1.8817V0.0169453C9.31416 0.00288281 9.15671 0 8.9991 0C8.84166 0 8.68439 0.00288281 8.5293 0.0169453V1.8817V1.90125H9.46908V1.8817Z" fill="#364F6B"/>
<path d="M12.2227 15.3686L13.1569 16.9825C13.3894 16.8611 13.6131 16.7307 13.8334 16.5878L12.9023 14.9707L12.2227 15.3686Z" fill="#364F6B"/>
</g>
</g>
</g>
<defs>
<clipPath id="clip0_27_43">
<rect width="18" height="18" fill="white"/>
</clipPath>
</defs>
</svg>
