<svg width="18" height="18" viewBox="0 0 18 18" fill="none" xmlns="http://www.w3.org/2000/svg">
<path d="M17.9535 3.94695C17.8724 3.53821 17.6911 3.1642 17.4381 2.8552C17.3847 2.78788 17.3289 2.72758 17.2685 2.66728C16.8201 2.21666 16.1907 1.93555 15.5032 1.93555H2.49682C1.80928 1.93555 1.18216 2.21666 0.731637 2.66728C0.671344 2.72758 0.615586 2.78788 0.562077 2.8552C0.308848 3.16415 0.127617 3.53821 0.0487267 3.94695C0.0163125 4.1047 0 4.26771 0 4.43252V13.5673C0 13.9177 0.0743202 14.2546 0.206859 14.5588C0.3298 14.8492 0.511067 15.1119 0.731601 15.3323C0.7875 15.388 0.843012 15.4393 0.903586 15.4903C1.33551 15.848 1.89306 16.064 2.49682 16.064H15.5032C16.1071 16.064 16.6671 15.848 17.0966 15.488C17.1569 15.4393 17.2127 15.388 17.2685 15.3323C17.4889 15.1119 17.6702 14.8492 17.7956 14.5588V14.5565C17.9281 14.2523 18 13.9177 18 13.5673V4.43252C18 4.26771 17.9839 4.1047 17.9535 3.94695ZM1.63508 3.57064C1.85815 3.34782 2.15771 3.21291 2.49682 3.21291H15.5032C15.8423 3.21291 16.1445 3.34782 16.3649 3.57064C16.4044 3.61033 16.4415 3.65454 16.4743 3.6985L9.65729 9.63972C9.46926 9.80451 9.23701 9.88589 9 9.88589C8.76537 9.88589 8.53326 9.80451 8.34275 9.63972L1.52831 3.69596C1.55848 3.65202 1.59564 3.61033 1.63508 3.57064ZM1.27737 13.5673V5.01779L6.21063 9.32146L1.27986 13.6205C1.27737 13.6042 1.27737 13.5859 1.27737 13.5673ZM15.5032 14.7864H2.49682C2.27601 14.7864 2.0694 14.7283 1.89306 14.6263L7.09542 10.0926L7.58108 10.5151C7.98754 10.8683 8.49613 11.0472 9 11.0472C9.50645 11.0472 10.015 10.8683 10.4214 10.5151L10.9069 10.0926L16.1072 14.6263C15.9306 14.7283 15.724 14.7864 15.5032 14.7864ZM16.7226 13.5673C16.7226 13.5859 16.7226 13.6042 16.7202 13.6205L11.7895 9.32395L16.7226 5.02009V13.5673Z" fill="#364F6B"/>
</svg>
