<svg width="22" height="16" viewBox="0 0 22 16" fill="none" xmlns="http://www.w3.org/2000/svg">
<path fill-rule="evenodd" clip-rule="evenodd" d="M8.6187 1.61867C8.9604 1.27697 8.9604 0.722967 8.6187 0.381267C8.277 0.0395666 7.723 0.0395666 7.3813 0.381267L0.3813 7.38127C0.2974 7.46517 0.234101 7.56187 0.191401 7.66507C0.148601 7.76817 0.125 7.88137 0.125 7.99997C0.125 8.11857 0.148601 8.23177 0.191401 8.33487C0.233801 8.43737 0.2965 8.53337 0.3794 8.61687M0.3815 8.61897L7.3813 15.6187C7.723 15.9604 8.277 15.9604 8.6187 15.6187C8.9604 15.277 8.9604 14.723 8.6187 14.3812V14.3812C6.58674 12.3493 8.02585 8.87497 10.8995 8.87497L21 8.87497C21.4832 8.87497 21.875 8.48327 21.875 7.99997C21.875 7.51677 21.4832 7.12497 21 7.12497L10.8995 7.12497C8.02586 7.12497 6.58674 3.65063 8.6187 1.61867V1.61867" fill="white"/>
</svg>
