<svg width="16" height="16" viewBox="0 0 16 16" fill="none" xmlns="http://www.w3.org/2000/svg">
<path d="M6.02634 14.3602C6.66634 14.5535 7.31301 14.6668 7.99967 14.6668C9.76778 14.6668 11.4635 13.9644 12.7137 12.7142C13.964 11.464 14.6663 9.76827 14.6663 8.00016C14.6663 7.12468 14.4939 6.25778 14.1589 5.44894C13.8238 4.6401 13.3328 3.90517 12.7137 3.28612C12.0947 2.66706 11.3597 2.176 10.5509 1.84097C9.74206 1.50593 8.87515 1.3335 7.99967 1.3335C7.12419 1.3335 6.25729 1.50593 5.44845 1.84097C4.63961 2.176 3.90469 2.66706 3.28563 3.28612C2.03539 4.53636 1.33301 6.23205 1.33301 8.00016C1.33301 10.8335 3.11301 13.2668 5.62634 14.2268C5.56634 13.7068 5.50634 12.8468 5.62634 12.2535L6.39301 8.96016C6.39301 8.96016 6.19967 8.5735 6.19967 7.96016C6.19967 7.04016 6.77301 6.3535 7.42634 6.3535C7.99967 6.3535 8.26634 6.7735 8.26634 7.3135C8.26634 7.88683 7.88634 8.70683 7.69301 9.4935C7.57967 10.1468 8.03967 10.7202 8.70634 10.7202C9.89301 10.7202 10.813 9.4535 10.813 7.66683C10.813 6.06683 9.66634 4.9735 8.01967 4.9735C6.13967 4.9735 5.03301 6.3735 5.03301 7.84683C5.03301 8.42016 5.21967 9.00016 5.52634 9.38016C5.58634 9.42016 5.58634 9.4735 5.56634 9.5735L5.37301 10.3002C5.37301 10.4135 5.29967 10.4535 5.18634 10.3735C4.33301 10.0002 3.83967 8.78683 3.83967 7.80683C3.83967 5.70016 5.33301 3.78683 8.21301 3.78683C10.5063 3.78683 12.293 5.4335 12.293 7.62016C12.293 9.9135 10.873 11.7535 8.83967 11.7535C8.19301 11.7535 7.55967 11.4068 7.33301 11.0002L6.88634 12.5802C6.73301 13.1535 6.31301 13.9202 6.02634 14.3802V14.3602Z" fill="white"/>
</svg>
