<svg width="47" height="42" viewBox="0 0 47 42" fill="none" xmlns="http://www.w3.org/2000/svg">
<g clip-path="url(#clip0_2_49)">
<path d="M10.0039 38.4373L9.83653 39.7617L10.8328 38.8731C20.5621 30.1957 22.5 17.8718 22.5 12C22.5 5.92487 17.5751 1 11.5 1C5.42487 1 0.5 5.92487 0.5 12C0.5 15.9096 1.54642 18.5557 3.45518 20.2771C5.25597 21.9011 7.74723 22.6296 10.6049 22.9142C10.6156 23.1281 10.6287 23.4191 10.6416 23.7789C10.6714 24.6098 10.7001 25.8078 10.6951 27.2719C10.6851 30.2014 10.5407 34.1911 10.0039 38.4373Z" stroke="#364F6B"/>
<path d="M33.084 38.4373L32.9166 39.7617L33.9129 38.8731C43.6421 30.1957 45.5801 17.8718 45.5801 12C45.5801 5.92487 40.6552 1 34.5801 1C28.5049 1 23.5801 5.92487 23.5801 12C23.5801 15.9096 24.6265 18.5557 26.5353 20.2771C28.336 21.9011 30.8273 22.6296 33.685 22.9142C33.6957 23.1281 33.7088 23.4191 33.7217 23.7789C33.7515 24.6098 33.7801 25.8078 33.7751 27.2719C33.7652 30.2014 33.6208 34.1911 33.084 38.4373Z" stroke="#364F6B"/>
</g>
<defs>
<clipPath id="clip0_2_49">
<rect width="47" height="41" fill="white" transform="translate(0 0.5)"/>
</clipPath>
</defs>
</svg>
