<svg width="22" height="16" viewBox="0 0 22 16" fill="none" xmlns="http://www.w3.org/2000/svg">
<path fill-rule="evenodd" clip-rule="evenodd" d="M13.3813 14.3813C13.0396 14.723 13.0396 15.277 13.3813 15.6187C13.723 15.9604 14.277 15.9604 14.6187 15.6187L21.6187 8.6187C21.7026 8.5348 21.7659 8.4381 21.8086 8.3349C21.8514 8.2318 21.875 8.1186 21.875 8C21.875 7.8814 21.8514 7.7682 21.8086 7.6651C21.7662 7.5626 21.7035 7.4666 21.6206 7.3831M21.6185 7.381L14.6187 0.381283C14.277 0.0395725 13.723 0.0395725 13.3813 0.381283C13.0396 0.722993 13.0396 1.27701 13.3813 1.61872L18.8876 7.125H1C0.51675 7.125 0.125 7.5167 0.125 8C0.125 8.4832 0.51675 8.875 1 8.875H18.8876L13.3813 14.3813" fill="white"/>
</svg>
