<svg width="21" height="22" viewBox="0 0 21 22" fill="none" xmlns="http://www.w3.org/2000/svg">
<path d="M10.9639 1.99714L13.0348 7.15411C13.2493 7.68842 13.7508 8.05275 14.3253 8.0917L19.8698 8.46765C20.3194 8.49814 20.5024 9.06123 20.1565 9.3502L15.8919 12.9134C15.4501 13.2825 15.2585 13.872 15.399 14.4304L16.7548 19.8197C16.8647 20.2568 16.3857 20.6048 16.004 20.3652L11.2975 17.4103C10.8098 17.1042 10.19 17.1042 9.70232 17.4103L4.99574 20.3652C4.61403 20.6048 4.13504 20.2568 4.24499 19.8197L5.60079 14.4304C5.74127 13.872 5.54972 13.2825 5.10787 12.9134L0.843244 9.3502C0.497379 9.06123 0.680338 8.49814 1.13001 8.46765L6.67451 8.0917C7.24897 8.05275 7.75044 7.68842 7.965 7.15411L10.0359 1.99714C10.2039 1.57891 10.7959 1.57891 10.9639 1.99714Z" stroke="#364F6B"/>
</svg>
