<svg width="21" height="22" viewBox="0 0 21 22" fill="none" xmlns="http://www.w3.org/2000/svg">
<path d="M9.57167 1.81082C9.90757 0.974355 11.0917 0.974354 11.4276 1.81082L13.4985 6.96779C13.6415 7.32399 13.9758 7.56688 14.3588 7.59285L19.9033 7.96879C20.8026 8.02977 21.1685 9.15596 20.4768 9.7339L16.2122 13.2971C15.9176 13.5432 15.7899 13.9362 15.8836 14.3084L17.2394 19.6977C17.4593 20.5719 16.5013 21.2679 15.7379 20.7886L11.0313 17.8338C10.7062 17.6297 10.293 17.6297 9.96793 17.8338L5.26135 20.7886C4.49794 21.2679 3.53995 20.5719 3.75986 19.6977L5.11566 14.3084C5.20931 13.9362 5.08162 13.5432 4.78705 13.2971L0.522425 9.7339C-0.169305 9.15596 0.196615 8.02977 1.09594 7.96879L6.64045 7.59285C7.02342 7.56688 7.35773 7.32399 7.50077 6.96779L9.57167 1.81082Z" fill="#364F6B"/>
</svg>
