<svg width="16" height="16" viewBox="0 0 16 16" fill="none" xmlns="http://www.w3.org/2000/svg">
<path d="M1.5 6C1.5 2.5 5 2.5 8 2.5C11 2.5 14.5 2.5 14.5 6C14.5 10 11 5.5 11 5.5H5C5 5.5 1.5 10 1.5 6ZM5.5 7C5.5 7 3 9.5 3 14H13C13 9.5 10.5 7 10.5 7H5.5Z" stroke="#FFE500" stroke-linecap="round" stroke-linejoin="round"/>
<path d="M8 12.5C9.10457 12.5 10 11.6046 10 10.5C10 9.39543 9.10457 8.5 8 8.5C6.89543 8.5 6 9.39543 6 10.5C6 11.6046 6.89543 12.5 8 12.5Z" stroke="#FFE500" stroke-linecap="round" stroke-linejoin="round"/>
</svg>
