<svg width="98" height="98" viewBox="0 0 98 98" fill="none" xmlns="http://www.w3.org/2000/svg">
<path d="M51.257 3.75999V14.685H62.172L51.257 3.75999Z" fill="#364F6B"/>
<path d="M31.0863 28.414C36.5939 28.414 41.0663 23.9416 41.0663 18.434C41.0663 12.9365 36.5938 8.45399 31.0863 8.45399C25.5887 8.45399 21.1063 12.9365 21.1063 18.434C21.1062 23.9416 25.5887 28.414 31.0863 28.414ZM31.0898 19.429C29.1592 19.429 27.5884 17.8586 27.5884 15.928C27.5884 14.3491 28.646 13.0264 30.0848 12.5913V10.76H32.0949V12.5913C33.5336 13.0265 34.5908 14.3491 34.5908 15.928H32.5807C32.5807 15.1055 31.9118 14.4367 31.0898 14.4367C30.2673 14.4367 29.5985 15.1056 29.5985 15.928C29.5985 16.75 30.2674 17.4189 31.0898 17.4189C33.0204 17.4189 34.5908 18.9897 34.5908 20.9203C34.5908 22.4992 33.5336 23.8216 32.0949 24.2566V26.1158H30.0848V24.2566C28.6459 23.8215 27.5884 22.4992 27.5884 20.9203H29.5985C29.5985 21.7423 30.2674 22.4112 31.0898 22.4112C31.9118 22.4112 32.5807 21.7423 32.5807 20.9203C32.5807 20.0978 31.9118 19.429 31.0898 19.429Z" fill="#364F6B"/>
<path d="M63.5993 44.3037L53.981 39.4795C53.3679 39.1679 52.8151 38.786 52.3227 38.3639H40.1617V36.3538H50.6241C49.2975 34.1226 49.0764 31.3085 50.2724 28.7657C52.2322 24.6249 57.3178 22.8058 61.5188 25.0873L63.5992 26.223V16.6952H49.2472V2.34331H13.9602V68.495H63.5992L63.5993 44.3037ZM31.0863 6.44381C37.6995 6.44381 43.0764 11.8308 43.0764 18.4339C43.0764 25.0471 37.6994 30.424 31.0863 30.424C24.4732 30.424 19.0961 25.0472 19.0961 18.434C19.0961 11.8309 24.4731 6.44381 31.0863 6.44381ZM27.9923 45.8873H20.1042V43.8772H27.9923V45.8873ZM40.8066 51.7335V53.7436H20.1041V51.7335H40.8066ZM20.1041 38.3623V36.3522H35.5085V38.3623H20.1041ZM29.1014 61.6004H20.1041V59.5903H29.1014V61.6004ZM54.6391 61.6004H32.6745V59.5903H54.6391V61.6004ZM54.6391 53.7436H45.634V51.7335H54.6391V53.7436ZM54.6391 45.8873H32.6745V43.8772H54.6391V45.8873Z" fill="#364F6B"/>
<path d="M80.1624 36.7759C80.0317 36.7097 77.3669 35.3603 60.554 26.8461C57.3681 25.1175 53.5489 26.5245 52.0916 29.6201C50.6946 32.595 51.9509 36.2031 54.8856 37.6805L65.6095 43.0675V70.5051H39.6593L56.3932 86.0832L80.1624 61.3391V36.7759ZM80.1624 36.7759C80.1694 36.7795 80.1682 36.7789 80.1624 36.7759Z" fill="#364F6B"/>
<path d="M79.8861 36.636C79.8432 36.6143 79.832 36.6087 79.8861 36.636ZM79.9762 36.6816C79.9411 36.6638 79.9101 36.6481 79.8861 36.636C79.906 36.6461 79.9356 36.661 79.9762 36.6816ZM79.9762 36.6816C80.0546 36.7214 80.1418 36.7655 80.1624 36.7759C80.0808 36.7347 80.0236 36.7056 79.9762 36.6816Z" fill="black"/>
<path d="M83.399 64.264L59.237 88.435L67.469 96.656L91.63 72.495L83.399 64.264Z" fill="#364F6B"/>
<path d="M41.2172 81.1856L48.6835 88.2126L50.0446 86.7664L42.5783 79.7394L41.2172 81.1856Z" fill="#364F6B"/>
<path d="M36.6944 76.9213L39.4838 79.5473L40.8451 78.1013L38.0558 75.4753L36.6944 76.9213Z" fill="#364F6B"/>
<path d="M87.451 46.16H85.465V57.779H87.451V46.16Z" fill="#364F6B"/>
<path d="M87.451 38.369H85.465V42.841H87.451V38.369Z" fill="#364F6B"/>
<path d="M7.356 22.261H5.37V60.595H7.356V22.261Z" fill="#364F6B"/>
<path d="M7.356 10.76H5.37V16.433H7.356V10.76Z" fill="#364F6B"/>
<path d="M60.6093 5.35337L65.8421 10.8815L67.2844 9.51624L62.0516 3.98811L60.6093 5.35337Z" fill="#364F6B"/>
<path d="M60.7155 2.57742L58.8945 0.65361L57.4522 2.01887L59.2732 3.94268L60.7155 2.57742Z" fill="#364F6B"/>
<path d="M75.9394 93.3521L77.3437 94.7565L85.5986 86.5019L84.1943 85.0975L75.9394 93.3521Z" fill="#364F6B"/>
<path d="M88.9584 80.337L86.4393 82.8553L87.8434 84.2598L90.3625 81.7415L88.9584 80.337Z" fill="#364F6B"/>
</svg>
