<svg width="50" height="50" viewBox="0 0 50 50" fill="none" xmlns="http://www.w3.org/2000/svg">
<path d="M15.8 21.4H22.3C22.1 20.9 21.8 20.5 21.6 20.1L17.2 20.8L13.3 20.2L13 20.9C13.1 20.9 13.3 20.9 13.4 20.9C14.4 20.8 15.2 21 15.8 21.4ZM26.9 22.9L32.7 27.6C32.6 27.3 32.6 27.1 32.6 26.9C32.6 24.4 34.6 22.3 37.2 22.3C39.7 22.3 41.8 24.3 41.8 26.9C41.8 27.2 41.7 27.7 41.6 28.1L44.7 27L40.3 20.1C40.1 19.8 39.7 19.6 39.3 19.6L32.7 20.7L28.4 20C28 21 27.5 21.9 26.9 22.9Z" fill="#364F6B"/>
<path d="M48.8 33.5L45.2 27.9L41.1 29.4C40.3 31.5 38.9 34.2 38 35.8C37.6 36.5 36.7 36.5 36.3 35.8C35.4 34.2 34 31.5 33.2 29.4L26.2 23.8C25.9 24.1 25.4 24.2 24.9 24.2C24.2 24.2 23.5 23.8 23.1 23.2C23 23 22.8 22.7 22.7 22.5H16.9C17.6 23.3 18 24.4 18 25.5C18 25.6 18 25.6 18 25.7C19.1 25.8 19.9 26 20.5 26.9C21.7 28.7 20.1 29.8 20.9 31C21.5 32 22.5 31.7 24.7 32.1L28.8 32.7C30.2 32.9 31.1 34.1 31 35.5V37.4L38.6 41.2L48.6 35C49 34.6 49.1 34 48.8 33.5Z" fill="#364F6B"/>
<path d="M28.8 33.7C23 32.6 21.2 33.2 20.2 31.5C19 29.7 20.8 28.8 19.9 27.4C19.5 26.8 19 26.7 18 26.7C17.4 29 15.5 32.5 14.4 34.6C14 35.3 13 35.3 12.6 34.6C11.2 32.1 8.8 27.3 8.8 25.5C8.8 23.5 10 21.8 11.8 21.1L12.4 19.9L10.7 19.6C10.3 19.5 9.9 19.7 9.7 20.1L1.2 33.5C0.9 34 1 34.6 1.5 34.9L11.4 41.1L25 34.4L30 36.9L30.2 35.4C30.2 34.5 29.7 33.8 28.8 33.7ZM25.9 22.7C27.3 20.2 29.7 15.4 29.7 13.6C29.7 11 27.6 8.9 25 8.9C22.4 8.9 20.3 11 20.3 13.6C20.3 15.5 22.8 20.2 24.1 22.7C24.6 23.4 25.6 23.4 25.9 22.7ZM22.5 13.5C22.5 12.1 23.6 11 25.1 11C26.5 11 27.6 12.1 27.6 13.5C27.6 14.9 26.5 16 25.1 16C23.7 16.1 22.5 14.9 22.5 13.5Z" fill="#364F6B"/>
<path d="M37.2 29.4C38.5807 29.4 39.7 28.2807 39.7 26.9C39.7 25.5193 38.5807 24.4 37.2 24.4C35.8193 24.4 34.7 25.5193 34.7 26.9C34.7 28.2807 35.8193 29.4 37.2 29.4Z" fill="#364F6B"/>
<path d="M13.5 28C14.8807 28 16 26.8807 16 25.5C16 24.1193 14.8807 23 13.5 23C12.1193 23 11 24.1193 11 25.5C11 26.8807 12.1193 28 13.5 28Z" fill="#364F6B"/>
</svg>
