<svg width="16" height="16" viewBox="0 0 16 16" fill="none" xmlns="http://www.w3.org/2000/svg">
<path d="M1.05 14.95C1.23753 15.1375 1.49184 15.2428 1.757 15.2428C2.02217 15.2428 2.27648 15.1375 2.464 14.95L8 9.414L13.536 14.95C13.7246 15.1322 13.9772 15.233 14.2394 15.2307C14.5016 15.2284 14.7524 15.1232 14.9378 14.9378C15.1232 14.7524 15.2284 14.5016 15.2307 14.2394C15.233 13.9772 15.1322 13.7246 14.95 13.536L9.414 8L14.95 2.464C15.1322 2.2754 15.233 2.02279 15.2307 1.7606C15.2284 1.4984 15.1232 1.24759 14.9378 1.06218C14.7524 0.876772 14.5016 0.771603 14.2394 0.769325C13.9772 0.767046 13.7246 0.867841 13.536 1.05L8 6.586L2.464 1.05C2.2754 0.867841 2.0228 0.767046 1.7606 0.769325C1.49841 0.771603 1.24759 0.876772 1.06219 1.06218C0.876777 1.24759 0.771608 1.4984 0.76933 1.7606C0.767052 2.02279 0.867846 2.2754 1.05 2.464L6.586 8L1.05 13.536C0.862533 13.7235 0.757217 13.9778 0.757217 14.243C0.757217 14.5082 0.862533 14.7625 1.05 14.95Z" fill="#364F6B"/>
</svg>
