<svg width="82" height="52" viewBox="0 0 82 52" fill="none" xmlns="http://www.w3.org/2000/svg">
<path d="M25.05 26L0 42.31V9.69L25.05 26ZM56.95 26L82 42.31V9.69L56.95 26ZM53.29 28.39L42.09 35.68C41.76 35.89 41.38 36 41 36C40.62 36 40.24 35.89 39.91 35.68L28.71 28.39L1.66 46L0.0900002 47.02C0.58 49.84 3.04 52 6 52H76C78.96 52 81.42 49.85 81.91 47.02L80.33 46L53.29 28.39ZM41 31.61L80.33 6L81.91 4.98C81.42 2.15 78.96 0 76 0H6C3.04 0 0.58 2.16 0.0900002 4.98L1.66 6L41 31.61Z" fill="#364F6B"/>
</svg>
