<svg width="80" height="80" viewBox="0 0 80 80" fill="none" xmlns="http://www.w3.org/2000/svg">
<path d="M40 5C20.701 5 5 20.701 5 40C5 59.299 20.701 75 40 75C59.299 75 75 59.299 75 40C75 20.701 59.299 5 40 5ZM9.071 42H21.531C21.663 46.655 22.256 51.039 23.226 55H12.883C10.6621 51.0037 9.35951 46.5628 9.07 42H9.071ZM42 21V9.332C45.533 10.492 48.998 14.653 51.381 21H42ZM52.653 25C53.669 28.804 54.325 33.177 54.468 38H42V25H52.653ZM38 9.332V21H28.619C31.002 14.653 34.467 10.493 38 9.332ZM38 25V38H25.532C25.675 33.177 26.331 28.804 27.347 25H38ZM21.53 38H9.071C9.3602 33.4373 10.6624 28.9964 12.883 25H23.226C22.256 28.961 21.663 33.345 21.53 38ZM25.532 42H38V55H27.347C26.331 51.196 25.675 46.823 25.532 42ZM38 59V70.668C34.467 69.508 31.002 65.347 28.619 59H38ZM42 70.668V59H51.381C48.998 65.347 45.533 69.507 42 70.668ZM42 55V42H54.468C54.325 46.823 53.669 51.196 52.653 55H42ZM58.47 42H70.929C70.6398 46.5627 69.3376 51.0036 67.117 55H56.774C57.744 51.039 58.337 46.655 58.47 42ZM58.47 38C58.337 33.345 57.744 28.961 56.774 25H67.117C69.3376 28.9964 70.6398 33.4373 70.929 38H58.47ZM64.469 21H55.617C54.244 16.915 52.436 13.43 50.302 10.767C55.9051 12.7549 60.8206 16.3059 64.469 21ZM29.698 10.767C27.564 13.43 25.756 16.915 24.383 21H15.531C19.1792 16.306 24.0953 12.755 29.698 10.767ZM15.53 59H24.382C25.755 63.085 27.563 66.57 29.697 69.233C24.0943 67.245 19.1782 63.694 15.53 59ZM50.301 69.233C52.435 66.57 54.243 63.085 55.616 59H64.468C60.8198 63.694 55.9037 67.245 50.301 69.233Z" fill="#364F6B"/>
</svg>
