<svg width="512" height="512" viewBox="0 0 512 512" fill="none" xmlns="http://www.w3.org/2000/svg">
<path fill-rule="evenodd" clip-rule="evenodd" d="M457.457 440.463C457.457 475.554 367.262 504 256 504C144.738 504 54.543 475.554 54.543 440.463C54.543 412.897 110.209 389.435 188.018 380.638C197.342 393.176 206.441 405.027 214.917 415.878C185.311 420.086 165.018 428.698 165.018 438.64C165.018 452.726 205.752 464.145 256 464.145C306.248 464.145 346.982 452.726 346.982 438.64C346.982 428.707 326.725 420.101 297.161 415.889C305.687 405.022 314.823 393.178 324.175 380.66C401.883 389.473 457.457 412.919 457.457 440.463ZM256 8C167.988 8 96.64 79.348 96.64 167.36C96.64 240.499 202.873 375.575 252.102 437.027C253.081 438.25 254.43 438.897 255.999 438.897C257.566 438.9 258.914 438.252 259.896 437.032C307.086 378.227 415.359 242.508 415.359 167.36C415.36 79.348 344.012 8 256 8ZM256 83.664C302.116 83.664 339.502 121.05 339.502 167.166C339.502 213.283 302.117 250.668 256 250.668C209.883 250.668 172.498 213.283 172.498 167.166C172.498 121.05 209.883 83.664 256 83.664Z" fill="#364F6B"/>
</svg>
