<svg width="22" height="14" viewBox="0 0 22 14" fill="none" xmlns="http://www.w3.org/2000/svg">
<path d="M21.707 7.70701C21.8945 7.51948 21.9998 7.26517 21.9998 7.00001C21.9998 6.73485 21.8945 6.48054 21.707 6.29301L15.707 0.293011C15.5184 0.110853 15.2658 0.010058 15.0036 0.0123364C14.7414 0.0146148 14.4906 0.119784 14.3052 0.305192C14.1198 0.4906 14.0146 0.741413 14.0123 1.00361C14.01 1.26581 14.1108 1.51841 14.293 1.70701L18.586 6.00001H1C0.734784 6.00001 0.48043 6.10537 0.292893 6.2929C0.105357 6.48044 0 6.73479 0 7.00001C0 7.26523 0.105357 7.51958 0.292893 7.70712C0.48043 7.89465 0.734784 8.00001 1 8.00001H18.586L14.293 12.293C14.1108 12.4816 14.01 12.7342 14.0123 12.9964C14.0146 13.2586 14.1198 13.5094 14.3052 13.6948C14.4906 13.8802 14.7414 13.9854 15.0036 13.9877C15.2658 13.99 15.5184 13.8892 15.707 13.707L21.707 7.70701Z" fill="black"/>
</svg>
