<svg width="150" height="152" viewBox="0 0 150 152" fill="none" xmlns="http://www.w3.org/2000/svg">
<path d="M137.304 38.7L112.979 61.541L136.11 125.153L118.762 142.501L84.2032 91.9161L66.7156 107.804V125.153L49.367 142.501L39.1078 112.247L8.88672 102.021L26.2354 84.6725H43.5841L60.9327 67.3238L8.88672 32.6265L26.2354 15.2778L89.8472 38.4094L112.77 14.1653L112.277 14.5762C113.888 12.9624 115.8 11.6817 117.906 10.8075C120.011 9.93331 122.269 9.4827 124.549 9.48145C126.828 9.4802 129.086 9.92832 131.193 10.8002C133.299 11.6721 135.213 12.9507 136.825 14.5628C138.438 16.1749 139.716 18.0889 140.588 20.1955C141.46 22.302 141.908 24.5598 141.907 26.8397C141.905 29.1195 141.455 31.3768 140.581 33.4824C139.706 35.588 138.426 37.5006 136.812 39.111L137.304 38.7Z" stroke="#364F6B" stroke-width="16" stroke-linecap="round" stroke-linejoin="round"/>
</svg>
