<svg width="15" height="16" viewBox="0 0 15 16" fill="none" xmlns="http://www.w3.org/2000/svg">
<g clip-path="url(#clip0_3_83)">
<mask id="mask0_3_83" style="mask-type:luminance" maskUnits="userSpaceOnUse" x="0" y="0" width="15" height="15">
<path d="M14.028 0.5H0V14.528H14.028V0.5Z" fill="white"/>
</mask>
<g mask="url(#mask0_3_83)">
<path d="M12.4498 12.7745C12.9759 12.3361 14.028 11.3717 14.028 9.96892C14.028 8.74147 12.9759 7.68936 11.5731 7.07564C12.0115 6.54959 12.2745 5.76051 12.2745 4.97143C12.2745 2.51653 9.73193 0.5 6.48795 0.5C3.41933 0.5 0 2.34118 0 4.97143C0 6.81261 1.4028 8.12774 2.01652 8.65379C1.92885 9.70589 1.49048 10.1443 1.49048 10.1443L0.438375 11.021H1.7535C2.8056 11.021 3.68235 10.758 4.38375 10.4073C4.64677 12.0731 6.57563 13.3882 9.03053 13.3882H9.4689C9.99495 13.8266 11.0471 14.528 12.5375 14.528H13.765L12.8006 13.7389C12.8006 13.7389 12.5375 13.4759 12.4498 12.7745ZM9.03053 12.5115C7.014 12.5115 5.2605 11.3717 5.2605 10.0566V9.88124C5.43585 9.70589 5.6112 9.61822 5.69887 9.44287H6.3126C8.15377 9.44287 9.8196 8.82914 10.8717 7.77704C12.1868 8.21541 13.1512 9.09217 13.1512 9.96892C13.1512 10.8457 12.3622 11.7224 11.6608 12.1608L11.3977 12.3361V12.5992C11.3977 13.0375 11.5731 13.3006 11.6608 13.5636C10.784 13.3882 10.1703 12.9499 9.99495 12.6868L9.90728 12.5115H9.03053ZM6.48795 1.37675C9.20587 1.37675 11.3977 3.04258 11.3977 4.97143C11.3977 6.90029 9.1182 8.56611 6.3126 8.56611H5.34817L5.2605 8.74146C4.99747 9.09217 3.94538 9.79357 2.54258 10.0566C2.63025 9.70589 2.63025 9.17984 2.63025 8.47844V8.21541C1.7535 7.51401 0.789075 6.28656 0.789075 5.05911C0.789075 3.13025 3.59468 1.37675 6.48795 1.37675Z" fill="#364F6B"/>
</g>
</g>
<defs>
<clipPath id="clip0_3_83">
<rect width="15" height="15" fill="white" transform="translate(0 0.5)"/>
</clipPath>
</defs>
</svg>
