<svg width="48" height="49" viewBox="0 0 48 49" fill="none" xmlns="http://www.w3.org/2000/svg">
<path d="M47 15.5L24 3.5L1 15.5L24 27.5C35.11 21.71 34 22.38 34 22.09L23.52 16.38C23.2866 16.2474 23.1155 16.0275 23.0442 15.7687C22.9729 15.5099 23.0074 15.2334 23.14 15C23.2726 14.7666 23.4925 14.5955 23.7513 14.5242C24.0101 14.4529 24.2866 14.4874 24.52 14.62L35.52 20.62C36.52 21.2 34.98 21.79 38.04 20.2L47 15.5Z" fill="#364F6B"/>
<path d="M24 29.7601L10 22.5001V29.5001C10 34.7401 25.1 37.6101 34 33.6901V24.5501L24 29.7601ZM38 29.5001V22.5001L36 23.5001V32.5901C36.5564 32.2728 37.0285 31.8265 37.3765 31.2888C37.7246 30.7511 37.9384 30.1376 38 29.5001ZM34 24.5501L36 23.5001V21.5001C36 21.1301 36.16 21.1601 34 22.2901V24.5501ZM34 39.7801C32.67 40.5501 33 41.6901 33 45.5001H37V41.5001C36.9979 41.1511 36.9045 40.8087 36.729 40.5069C36.5536 40.2052 36.3023 39.9546 36 39.7801V32.5901C35.3733 33.0251 34.703 33.3938 34 33.6901V39.7801Z" fill="#364F6B"/>
</svg>
