<svg width="15" height="16" viewBox="0 0 15 16" fill="none" xmlns="http://www.w3.org/2000/svg">
<g clip-path="url(#clip0_3_61)">
<path d="M7.014 0.5C5.15442 0.502117 3.37161 1.24177 2.05669 2.55669C0.74177 3.87161 0.00211737 5.65442 0 7.514C0 9.388 0.73 11.149 2.055 12.473C2.70456 13.1265 3.47734 13.6447 4.32857 13.9974C5.17981 14.3502 6.09257 14.5305 7.014 14.528C8.87358 14.5259 10.6564 13.7862 11.9713 12.4713C13.2862 11.1564 14.0259 9.37358 14.028 7.514C14.0259 5.65442 13.2862 3.87161 11.9713 2.55669C10.6564 1.24177 8.87358 0.502117 7.014 0.5ZM7.014 1.5C8.60844 1.50185 10.1371 2.13606 11.2645 3.26351C12.3919 4.39095 13.0261 5.91956 13.028 7.514C13.0266 9.02614 12.4528 10.4817 11.422 11.588C10.7415 10.7824 9.85544 10.1763 8.858 9.834C9.20428 9.55318 9.48359 9.19869 9.6756 8.79632C9.86762 8.39395 9.96751 7.95383 9.968 7.508C9.96682 7.11375 9.88787 6.72361 9.73566 6.35992C9.58346 5.99624 9.36099 5.66616 9.08101 5.38859C8.80103 5.11103 8.46903 4.89143 8.10404 4.74238C7.73905 4.59333 7.34824 4.51776 6.954 4.52C6.55992 4.52118 6.16994 4.60007 5.80639 4.75215C5.44284 4.90423 5.11284 5.12651 4.8353 5.40628C4.55776 5.68605 4.33812 6.01781 4.18896 6.38257C4.03979 6.74733 3.96403 7.13792 3.966 7.532C3.966 8.461 4.402 9.282 5.07 9.83C4.09284 10.163 3.2213 10.7489 2.544 11.528C1.54803 10.4286 0.997542 8.99746 1 7.514C1.00185 5.91956 1.63606 4.39095 2.76351 3.26351C3.89095 2.13606 5.41956 1.50185 7.014 1.5ZM6.979 5.52C8.076 5.52 8.967 6.412 8.967 7.532C8.96572 8.04714 8.76453 8.54167 8.40581 8.91139C8.04709 9.28112 7.55887 9.49716 7.044 9.514C7.015 9.514 6.987 9.508 6.958 9.508C6.933 9.508 6.909 9.513 6.884 9.514C6.36671 9.49376 5.87757 9.27314 5.52001 8.89878C5.16244 8.52442 4.96449 8.02567 4.968 7.508C4.968 6.412 5.859 5.52 6.979 5.52ZM6.883 10.512C6.907 10.513 6.931 10.52 6.955 10.52H6.979C7.001 10.52 7.019 10.513 7.041 10.512C7.73863 10.5242 8.42537 10.6871 9.05417 10.9895C9.68296 11.2919 10.2389 11.7266 10.684 12.264C9.63587 13.0828 8.34407 13.5278 7.014 13.528C5.65379 13.5308 4.33349 13.0685 3.272 12.218C3.7182 11.6935 4.27103 11.2701 4.89367 10.9759C5.51631 10.6817 6.19447 10.5236 6.883 10.512Z" fill="#364F6B"/>
</g>
<defs>
<clipPath id="clip0_3_61">
<rect width="15" height="15" fill="white" transform="translate(0 0.5)"/>
</clipPath>
</defs>
</svg>
