<svg width="101" height="125" viewBox="0 0 101 125" fill="none" xmlns="http://www.w3.org/2000/svg">
<g clip-path="url(#clip0_3_63)">
<mask id="mask0_3_63" style="mask-type:luminance" maskUnits="userSpaceOnUse" x="0" y="0" width="101" height="124">
<path d="M100.74 0.5H0V123.62H100.74V0.5Z" fill="white"/>
</mask>
<g mask="url(#mask0_3_63)">
<path fill-rule="evenodd" clip-rule="evenodd" d="M25.85 40.4C33.48 48.59 45.27 37.86 56.76 34.86C63.28 33.15 66.79 44.73 75.2 40.5L75.99 49.66C81.22 48.48 77.5 64.61 72.96 63.77C71.47 68.7 70.9 72.19 68.46 75.46C63.88 81.58 56.48 84.7 50.55 84.57C44.95 84.45 37.83 81.37 33.27 75.73C30.46 72.26 29.55 68.44 27.81 63.11C22.98 64.55 19.74 48.18 24.99 49.58L25.85 40.4ZM58.98 14.84V16.86C58.98 17.8 58.21 18.56 57.28 18.56H53.85V21.99C53.85 22.93 53.08 23.69 52.15 23.69H50.13C49.19 23.69 48.43 22.92 48.43 21.99V18.56H45C44.06 18.56 43.3 17.79 43.3 16.86V14.84C43.3 13.9 44.07 13.14 45 13.14H48.43V9.7C48.43 8.76 49.2 8 50.13 8H52.15C53.09 8 53.85 8.77 53.85 9.7V13.13H57.28C58.21 13.14 58.98 13.9 58.98 14.84ZM38.96 0.5H63.3C64.14 0.5 65.02 0.62 65.89 0.85C67.77 1.34 69.54 2.35 70.86 3.69C72.35 5.22 73.31 7.17 73.31 9.35C73.31 9.94 73.23 10.57 73.06 11.23L70.79 19.91C71.48 20.66 72.14 21.47 72.75 22.34C86.18 41.42 90.64 75.78 68.58 80.21C71.51 82.1 75.1 82.42 78.79 82.21C89.9 82.49 97.64 87.25 100.75 98.19V118.05C100.74 120.94 99.01 122.92 94.88 123.62H55.12L64.92 80.89C63.67 81.85 62.35 82.68 61 83.37C57.53 85.14 53.81 86 50.52 85.93C47.41 85.86 43.87 84.94 40.52 83.23C39 82.45 37.51 81.5 36.11 80.39L35.71 80.3L45.62 123.61H5.87C1.74 122.91 0.02 120.93 0 118.04V98.19C3.1 87.24 10.85 82.49 21.96 82.21C25.97 82.44 29.86 82.02 32.94 79.67C21.59 76.86 16.78 72.84 16.78 56.61V51.07C17.49 38.93 20.55 28.18 27.09 20.32C28.06 19.15 29.3 18.06 30.75 17.07L29.22 11.23C29.05 10.57 28.97 9.94 28.97 9.35C28.97 7.17 29.92 5.22 31.42 3.69C32.73 2.35 34.51 1.34 36.38 0.85C37.24 0.62 38.11 0.5 38.96 0.5ZM38.96 3.93H63.3C66.84 3.93 70.63 6.94 69.73 10.36L67.92 17.27L66.7 21.92C65.81 25.34 63.8 28.35 60.27 28.35H41.97C38.44 28.35 36.43 25.34 35.54 21.92L33.8 15.26L32.52 10.35C31.63 6.94 35.42 3.93 38.96 3.93ZM69.82 108H82.72V111.09H69.82V108ZM48.89 123.62L42.32 101.82C47.47 102.91 52.88 103.02 58.64 101.82L52.37 123.62H48.89ZM47.79 64.8C47.48 64.51 47.46 64.01 47.74 63.69C48.02 63.37 48.49 63.35 48.8 63.64C49.34 64.16 49.86 64.41 50.35 64.4C50.85 64.39 51.38 64.13 51.93 63.62C52.24 63.34 52.72 63.37 52.99 63.7C53.26 64.03 53.23 64.53 52.91 64.81C52.09 65.56 51.24 65.96 50.36 65.97C49.48 65.99 48.63 65.61 47.79 64.8ZM67.42 49.63C67.74 49.91 67.78 50.41 67.52 50.74C67.26 51.08 66.78 51.12 66.46 50.85C65.03 49.6 62.21 50.14 59.78 50.6C58.51 50.84 57.34 51.06 56.41 51.03C56 51.01 55.67 50.65 55.69 50.21C55.7 49.77 56.05 49.43 56.47 49.45C57.24 49.48 58.33 49.27 59.52 49.05C62.26 48.52 65.46 47.91 67.42 49.63ZM41.36 56.48C41.43 56.69 41.47 56.91 41.47 57.14C41.47 58.21 40.65 59.07 39.64 59.07C38.63 59.07 37.81 58.21 37.81 57.14C37.81 56.76 37.91 56.4 38.09 56.11C37.08 56.17 36.07 56.4 35.05 56.82C34.7 56.97 34.31 56.74 34.19 56.32C34.07 55.9 34.26 55.43 34.61 55.29C35.97 54.73 37.34 54.47 38.72 54.48C40.09 54.49 41.45 54.77 42.81 55.29C43.17 55.42 43.36 55.88 43.25 56.31C43.14 56.74 42.76 56.98 42.4 56.84C42.06 56.7 41.71 56.58 41.36 56.48ZM59.45 56.31C59.39 56.51 59.35 56.72 59.35 56.94C59.35 58.01 60.17 58.87 61.18 58.87C62.19 58.87 63.01 58.01 63.01 56.94C63.01 56.6 62.93 56.28 62.78 56.01C63.78 56.08 64.78 56.28 65.8 56.63C66.16 56.75 66.53 56.5 66.63 56.07C66.73 55.64 66.52 55.19 66.17 55.07C64.8 54.6 63.44 54.36 62.07 54.37C60.71 54.37 59.36 54.61 58.02 55.08C57.66 55.2 57.46 55.65 57.56 56.08C57.66 56.51 58.04 56.76 58.39 56.63C58.75 56.51 59.1 56.4 59.45 56.31ZM34.36 51.05C34.04 51.33 33.57 51.28 33.3 50.94C33.04 50.6 33.08 50.11 33.4 49.83C35.36 48.12 38.56 48.72 41.3 49.25C42.49 49.48 43.58 49.68 44.35 49.65C44.76 49.63 45.11 49.98 45.13 50.41C45.14 50.85 44.82 51.21 44.41 51.23C43.48 51.26 42.31 51.04 41.04 50.8C38.62 50.34 35.79 49.8 34.36 51.05ZM43.88 71.3C43.56 71.03 43.51 70.53 43.77 70.19C44.03 69.85 44.5 69.8 44.82 70.07C46.88 71.81 48.8 72.66 50.61 72.65C52.38 72.64 54.08 71.79 55.71 70.12C56.01 69.82 56.48 69.82 56.77 70.14C57.06 70.45 57.05 70.95 56.75 71.26C54.84 73.23 52.79 74.23 50.61 74.24C48.45 74.24 46.21 73.27 43.88 71.3Z" fill="#364F6B"/>
</g>
</g>
<defs>
<clipPath id="clip0_3_63">
<rect width="101" height="124" fill="white" transform="translate(0 0.5)"/>
</clipPath>
</defs>
</svg>
