<svg width="20" height="22" viewBox="0 0 20 22" fill="none" xmlns="http://www.w3.org/2000/svg">
<g clip-path="url(#clip0_3_73)">
<path d="M19 8.50049C19.1313 8.50052 19.2614 8.47468 19.3827 8.42444C19.5041 8.37419 19.6143 8.30053 19.7072 8.20767C19.8 8.1148 19.8737 8.00455 19.9239 7.88321C19.9742 7.76187 20 7.63182 20 7.50049V4.50049C20.0001 4.29066 19.9341 4.08614 19.8114 3.91593C19.6887 3.74572 19.5155 3.61848 19.3164 3.55225L10.3164 0.552246C10.111 0.483887 9.88899 0.483887 9.68359 0.552246L0.68359 3.55225C0.484493 3.61848 0.311309 3.74572 0.188606 3.91593C0.0659032 4.08614 -8.61316e-05 4.29066 8.43741e-08 4.50049V7.50049C-3.40751e-05 7.63182 0.0258085 7.76187 0.0760511 7.88321C0.126294 8.00455 0.199952 8.1148 0.292817 8.20767C0.385683 8.30053 0.495935 8.37419 0.617276 8.42444C0.738617 8.47468 0.868669 8.50052 1 8.50049H2V15.6848C1.41674 15.8902 0.911365 16.2712 0.553267 16.7753C0.195169 17.2795 0.00190247 17.8821 8.43741e-08 18.5005V20.5005C-3.40751e-05 20.6318 0.0258085 20.7619 0.0760511 20.8832C0.126294 21.0046 0.199952 21.1148 0.292817 21.2077C0.385683 21.3005 0.495935 21.3742 0.617276 21.4244C0.738617 21.4747 0.868669 21.5005 1 21.5005H19C19.1313 21.5005 19.2614 21.4747 19.3827 21.4244C19.5041 21.3742 19.6143 21.3005 19.7072 21.2077C19.8 21.1148 19.8737 21.0046 19.9239 20.8832C19.9742 20.7619 20 20.6318 20 20.5005V18.5005C19.9981 17.8821 19.8048 17.2795 19.4467 16.7753C19.0886 16.2712 18.5833 15.8902 18 15.6848V8.50049H19ZM18 19.5005H2V18.5005C2.00026 18.2354 2.10571 17.9812 2.29319 17.7937C2.48066 17.6062 2.73486 17.5008 3 17.5005H17C17.2651 17.5008 17.5193 17.6062 17.7068 17.7937C17.8943 17.9812 17.9997 18.2354 18 18.5005V19.5005ZM4 15.5005V8.50049H6V15.5005H4ZM8 15.5005V8.50049H12V15.5005H8ZM14 15.5005V8.50049H16V15.5005H14ZM2 6.50049V5.22119L10 2.55419L18 5.22119V6.50049H2Z" fill="#364F6B"/>
</g>
<defs>
<clipPath id="clip0_3_73">
<rect width="20" height="21" fill="white" transform="translate(0 0.5)"/>
</clipPath>
</defs>
</svg>
