<svg width="218" height="179" viewBox="0 0 218 179" fill="none" xmlns="http://www.w3.org/2000/svg">
<g clip-path="url(#clip0_3_75)">
<path d="M78.0938 89.25C53.4454 89.25 33.4688 69.2733 33.4688 44.625C33.4688 19.9767 53.4454 0 78.0938 0C102.742 0 122.719 19.9767 122.719 44.625C122.719 69.2733 102.742 89.25 78.0938 89.25ZM62.1612 105.984H94.0263C98.1401 105.984 102.184 106.403 106.054 107.135C105.322 113.585 108.634 119.546 113.654 122.754C107.867 126.449 104.346 133.77 106.682 141.336C108.076 145.833 109.959 150.226 112.399 154.444C114.84 158.663 117.698 162.498 120.906 165.949C126.379 171.841 134.712 172.364 140.848 168.982V169.296C140.848 172.504 141.789 175.746 143.602 178.465H10.3544C4.63682 178.5 0 173.863 0 168.146C0 133.805 27.8209 105.984 62.1612 105.984ZM152.004 76.0717C152.004 73.6312 153.573 71.4349 155.943 70.9119C159.604 70.0752 163.439 69.622 167.344 69.622C171.248 69.622 175.083 70.0752 178.744 70.9119C181.115 71.4349 182.684 73.6312 182.684 76.0717V86.7398C185.438 87.9252 188.053 89.4243 190.458 91.2023L199.139 86.2169C201.266 84.9967 203.915 85.2756 205.589 87.0536C208.238 89.8775 210.574 93.0501 212.596 96.5364C214.618 100.023 216.187 103.649 217.303 107.344C218.035 109.68 216.919 112.12 214.793 113.341L206.077 118.361C206.216 119.755 206.321 121.185 206.321 122.649C206.321 124.113 206.251 125.508 206.077 126.937L214.793 131.958C216.919 133.178 218 135.618 217.303 137.954C216.152 141.65 214.583 145.275 212.596 148.762C210.609 152.248 208.238 155.421 205.589 158.244C203.915 160.022 201.231 160.301 199.139 159.081L190.458 154.096C188.053 155.874 185.473 157.373 182.684 158.558V169.226C182.684 171.667 181.115 173.863 178.744 174.386C175.083 175.223 171.248 175.676 167.344 175.676C163.439 175.676 159.604 175.223 155.943 174.386C153.573 173.863 152.004 171.667 152.004 169.226V158.558C149.215 157.373 146.565 155.874 144.16 154.061L135.548 159.046C133.422 160.267 130.772 159.988 129.099 158.21C126.449 155.386 124.113 152.213 122.091 148.727C120.069 145.24 118.5 141.615 117.385 137.919C116.653 135.583 117.768 133.143 119.895 131.923L128.541 126.937C128.401 125.508 128.297 124.078 128.297 122.614C128.297 121.15 128.367 119.721 128.541 118.291L119.86 113.306C117.733 112.085 116.653 109.645 117.35 107.309C118.5 103.614 120.034 99.9879 122.056 96.5016C124.078 93.0152 126.414 89.8427 129.064 87.0188C130.737 85.2407 133.387 84.9618 135.514 86.182L144.16 91.1675C146.565 89.3895 149.215 87.8903 152.004 86.6701V76.0717ZM184.113 122.614C184.113 113.375 176.617 105.88 167.344 105.88C158.07 105.88 150.575 113.375 150.575 122.614C150.575 131.853 158.07 139.349 167.344 139.349C176.617 139.349 184.113 131.853 184.113 122.614Z" fill="#364F6B"/>
</g>
<defs>
<clipPath id="clip0_3_75">
<rect width="217.547" height="178.5" fill="white"/>
</clipPath>
</defs>
</svg>
