<svg width="22" height="18" viewBox="0 0 22 18" fill="none" xmlns="http://www.w3.org/2000/svg">
<g clip-path="url(#clip0_3_77)">
<path d="M3.30098 8.00149C4.51441 8.00149 5.50098 7.01493 5.50098 5.80149C5.50098 4.58805 4.51441 3.60149 3.30098 3.60149C2.08754 3.60149 1.10098 4.58805 1.10098 5.80149C1.10098 7.01493 2.08754 8.00149 3.30098 8.00149ZM18.701 8.00149C19.9144 8.00149 20.901 7.01493 20.901 5.80149C20.901 4.58805 19.9144 3.60149 18.701 3.60149C17.4875 3.60149 16.501 4.58805 16.501 5.80149C16.501 7.01493 17.4875 8.00149 18.701 8.00149ZM19.801 9.10149H17.601C16.996 9.10149 16.4494 9.34555 16.0507 9.74086C17.436 10.5005 18.4191 11.8721 18.6322 13.5014H20.901C21.5094 13.5014 22.001 13.0099 22.001 12.4014V11.3014C22.001 10.088 21.0144 9.10149 19.801 9.10149ZM11.001 9.10149C13.1288 9.10149 14.851 7.3793 14.851 5.25149C14.851 3.12368 13.1288 1.40149 11.001 1.40149C8.87316 1.40149 7.15098 3.12368 7.15098 5.25149C7.15098 7.3793 8.87316 9.10149 11.001 9.10149ZM13.641 10.2015H13.3557C12.6407 10.5452 11.8466 10.7514 11.001 10.7514C10.1554 10.7514 9.36473 10.5452 8.64629 10.2015H8.36098C6.17473 10.2015 4.40098 11.9752 4.40098 14.1614V15.1514C4.40098 16.0624 5.14004 16.8014 6.05098 16.8014H15.951C16.8619 16.8014 17.601 16.0624 17.601 15.1514V14.1614C17.601 11.9752 15.8272 10.2015 13.641 10.2015ZM5.95129 9.74086C5.55254 9.34555 5.00598 9.10149 4.40098 9.10149H2.20098C0.98754 9.10149 0.000976562 10.088 0.000976562 11.3014V12.4014C0.000976562 13.0099 0.492539 13.5014 1.10098 13.5014H3.36629C3.58285 11.8721 4.56598 10.5005 5.95129 9.74086Z" fill="#364F6B"/>
</g>
<defs>
<clipPath id="clip0_3_77">
<rect width="22" height="17" fill="white" transform="translate(0 0.5)"/>
</clipPath>
</defs>
</svg>
